<svg width="11" height="12" viewBox="0 0 11 12" fill="none" xmlns="http://www.w3.org/2000/svg">
<path d="M10.4699 6.53329C10.7312 3.81668 8.80277 1.39647 6.16253 1.12757C3.52229 0.858662 1.17009 2.8429 0.908751 5.5595C0.647407 8.27611 2.57589 10.6963 5.21612 10.9652C7.85636 11.2341 10.2086 9.24989 10.4699 6.53329Z" fill="#212A3B"/>
<path d="M8.17044 2.70435C8.66088 3.39939 8.95856 4.24518 8.95856 5.16873C8.95856 7.49507 7.12633 9.38026 4.86539 9.38026C3.9678 9.38026 3.14426 9.07399 2.46875 8.56937C3.21212 9.62305 4.412 10.3149 5.7738 10.3149C8.03475 10.3149 9.86693 8.42973 9.86693 6.10339C9.86693 4.70378 9.1945 3.4708 8.17044 2.70435Z" fill="#273145"/>
<path d="M8.29155 6.03604C8.29155 7.50389 7.13488 8.69403 5.7083 8.69403C4.28172 8.69403 3.125 7.50389 3.125 6.03604C3.125 4.5682 4.28172 3.37805 5.7083 3.37805C7.13488 3.37647 8.29155 4.56661 8.29155 6.03604Z" fill="#19202E"/>
<path d="M5.73204 2.20753C5.48682 1.63467 4.72803 1.42363 4.03711 1.73465C3.34463 2.04726 2.98376 2.76452 3.22743 3.33738C3.47265 3.91023 4.23144 4.12287 4.92237 3.81026C5.6133 3.49924 5.97571 2.78039 5.73204 2.20753Z" fill="#637CAD"/>
<path d="M2.43643 3.44063C2.12489 3.42318 1.85961 3.66914 1.84265 3.98969C1.82568 4.31023 2.06474 4.58318 2.37628 4.60063C2.68781 4.61809 2.95305 4.37212 2.97001 4.05158C2.98698 3.73103 2.74796 3.4565 2.43643 3.44063Z" fill="#637CAD"/>
</svg>
