<svg width="24" height="30" viewBox="0 0 24 30" fill="none" xmlns="http://www.w3.org/2000/svg">
<path d="M3.18969 0.00834004C3.26972 0.00809571 3.34975 0.00777527 3.42978 0.00738577C3.64857 0.00654336 3.86736 0.0067879 4.08616 0.00722011C4.32257 0.00749734 4.55897 0.0067648 4.79538 0.00616658C5.25812 0.0051623 5.72084 0.00511229 6.18358 0.00541889C6.55983 0.00565545 6.93608 0.00557053 7.31233 0.00525819C7.39274 0.00519255 7.39274 0.00519255 7.47477 0.00512558C7.58368 0.00503603 7.69258 0.00494608 7.80149 0.00485573C8.82228 0.00405344 9.84306 0.00437096 10.8639 0.00504198C11.7969 0.00562258 12.73 0.00486631 13.663 0.00346706C14.6219 0.00203994 15.5808 0.0014793 16.5397 0.001868C17.0777 0.00207201 17.6157 0.00194291 18.1538 0.000917758C18.6118 5.57731e-05 19.0699 2.12626e-05 19.5279 0.00103885C19.7614 0.00153567 19.9949 0.00166407 20.2284 0.000766861C20.4426 -4.57613e-05 20.6567 0.000239446 20.8708 0.00136558C20.9842 0.00168755 21.0975 0.000870352 21.2108 0C22.016 0.00672648 22.5937 0.236826 23.1631 0.801203C23.6535 1.32502 23.8731 1.87263 23.8685 2.59375C23.8687 2.63756 23.8688 2.68136 23.869 2.72649C23.8695 2.87269 23.8692 3.01887 23.8688 3.16507C23.869 3.27118 23.8692 3.37729 23.8695 3.4834C23.8701 3.77456 23.87 4.06571 23.8697 4.35686C23.8696 4.67104 23.8701 4.98521 23.8706 5.29938C23.8713 5.91471 23.8714 6.53003 23.8713 7.14536C23.8712 7.64549 23.8713 8.14563 23.8715 8.64576C23.8716 8.71694 23.8716 8.78811 23.8716 8.86144C23.8717 9.00602 23.8718 9.15061 23.8718 9.29519C23.8725 10.6512 23.8723 12.0072 23.872 13.3633C23.8717 14.6038 23.8723 15.8443 23.8735 17.0849C23.8746 18.3587 23.8751 19.6325 23.8749 20.9063C23.8747 21.6215 23.8749 22.3366 23.8757 23.0517C23.8764 23.6605 23.8765 24.2693 23.8758 24.8781C23.8754 25.1887 23.8754 25.4993 23.8761 25.8099C23.8767 26.0943 23.8765 26.3787 23.8757 26.6632C23.8756 26.7659 23.8757 26.8687 23.8762 26.9715C23.88 27.8806 23.7491 28.6011 23.1044 29.2856C22.8722 29.5046 22.6264 29.6673 22.3333 29.7936C22.2997 29.8081 22.2661 29.8225 22.2315 29.8375C21.8259 29.9932 21.4416 29.9937 21.0111 29.9917C20.931 29.9919 20.851 29.9922 20.7709 29.9926C20.552 29.9935 20.3331 29.9932 20.1142 29.9928C19.8776 29.9925 19.6411 29.9932 19.4046 29.9938C18.9416 29.9948 18.4787 29.9949 18.0158 29.9946C17.6394 29.9943 17.263 29.9944 16.8866 29.9947C16.8061 29.9948 16.8061 29.9948 16.7241 29.9949C16.6152 29.995 16.5062 29.9951 16.3973 29.9951C15.3762 29.9959 14.3551 29.9956 13.3341 29.995C12.4006 29.9944 11.4671 29.9951 10.5336 29.9965C9.57442 29.998 8.6152 29.9985 7.65597 29.9981C7.11773 29.9979 6.57949 29.9981 6.04125 29.9991C5.58305 29.9999 5.12485 30 4.66665 29.999C4.43303 29.9985 4.19943 29.9983 3.96581 29.9992C3.75163 30 3.53747 29.9998 3.32329 29.9986C3.20979 29.9983 3.0963 29.9991 2.98281 30C2.24744 29.9938 1.6405 29.7692 1.09838 29.2673C0.53202 28.6745 0.325603 27.9549 0.336176 27.1511C0.336342 27.1025 0.336507 27.054 0.336678 27.0039C0.337325 26.8508 0.338792 26.6978 0.340288 26.5447C0.340875 26.44 0.341409 26.3354 0.341887 26.2307C0.343167 25.976 0.34518 25.7213 0.347597 25.4666C0.415453 25.4661 0.483309 25.4655 0.553222 25.4649C0.805189 25.4626 1.05711 25.4588 1.30905 25.4545C1.41806 25.4528 1.52707 25.4516 1.63608 25.4508C1.79287 25.4495 1.94958 25.4468 2.10634 25.4438C2.15502 25.4437 2.20369 25.4436 2.25384 25.4435C2.47543 25.4379 2.59227 25.4339 2.77575 25.3017C2.90267 25.1139 2.89352 24.9861 2.86192 24.7649C2.71372 24.5638 2.64214 24.5346 2.39414 24.4726C1.71878 24.4533 1.04342 24.434 0.347597 24.4141C0.347597 22.581 0.347597 20.7479 0.347597 18.8592C1.38958 18.8302 1.38958 18.8302 2.45261 18.8007C2.74849 18.7144 2.74849 18.7144 2.86192 18.5084C2.8933 18.2316 2.8933 18.2316 2.78152 17.9894C2.11259 17.5263 1.16091 17.8281 0.347597 17.8067C0.347597 15.9543 0.347597 14.1019 0.347597 12.1933C1.08084 12.174 1.81409 12.1547 2.56956 12.1348C2.64674 12.1155 2.72392 12.0962 2.80345 12.0764C2.87293 11.8679 2.87728 11.7106 2.86192 11.4916C2.79716 11.35 2.79716 11.35 2.6865 11.2578C1.9292 11.0684 1.1279 11.1625 0.347597 11.1408C0.347597 9.30769 0.347597 7.47457 0.347597 5.58591C1.36064 5.55696 1.36064 5.55696 2.39414 5.52744C2.79028 5.40982 2.79028 5.40982 2.86192 5.23507C2.89016 4.95048 2.89016 4.95048 2.77644 4.6978C2.55888 4.54252 2.36778 4.55663 2.10634 4.55624C2.05606 4.55527 2.00577 4.55431 1.95396 4.55331C1.7937 4.55048 1.63347 4.54923 1.47319 4.54802C1.36439 4.54637 1.2556 4.54462 1.1468 4.54277C0.880401 4.53844 0.614021 4.53555 0.347597 4.5334C0.343214 4.22981 0.340055 3.92624 0.337961 3.62262C0.337086 3.51964 0.335895 3.41667 0.334363 3.3137C0.31958 2.29337 0.415405 1.46418 1.13743 0.693622C1.73863 0.13106 2.39133 0.00452407 3.18969 0.00834004ZM9.35192 8.82611C8.78776 9.59543 8.49585 10.504 8.61759 11.456C8.75553 12.2888 9.09523 12.9482 9.70322 13.5382C9.74045 13.5759 9.77769 13.6137 9.81605 13.6526C10.4753 14.2804 11.3819 14.5452 12.276 14.5322C13.266 14.4404 14.1463 14.0296 14.8068 13.2673C15.4184 12.4662 15.6994 11.5631 15.609 10.5561C15.4564 9.69526 15.1101 9.06642 14.498 8.45107C14.4677 8.41873 14.4374 8.38639 14.4062 8.35308C13.7619 7.72741 12.8565 7.49129 11.9886 7.48967C10.9468 7.51736 10.0142 8.0298 9.35192 8.82611ZM8.59224 17.5728C8.52214 17.6292 8.52214 17.6292 8.45062 17.6868C7.31341 18.6421 6.73608 20.0961 6.60417 21.5489C6.57853 21.8643 6.57004 22.1114 6.77959 22.3675C6.99651 22.5122 7.10567 22.4995 7.36482 22.5001C7.42778 22.5005 7.42778 22.5005 7.492 22.5009C7.633 22.5017 7.77398 22.5016 7.91498 22.5015C8.01592 22.5018 8.11686 22.5022 8.2178 22.5027C8.49228 22.5037 8.76676 22.504 9.04125 22.5041C9.27026 22.5042 9.49927 22.5046 9.72828 22.505C10.2685 22.506 10.8088 22.5062 11.349 22.5062C11.9066 22.5061 12.4642 22.5073 13.0218 22.5092C13.5002 22.5107 13.9787 22.5113 14.4571 22.5113C14.743 22.5112 15.0289 22.5116 15.3148 22.5128C15.5836 22.5139 15.8525 22.5139 16.1213 22.5131C16.22 22.513 16.3187 22.5132 16.4174 22.514C16.5521 22.5149 16.6868 22.5143 16.8215 22.5134C16.8969 22.5135 16.9723 22.5135 17.05 22.5136C17.2796 22.4795 17.3755 22.4125 17.5385 22.2506C17.8137 21.7002 17.5283 20.6945 17.3442 20.1307C16.8299 18.661 15.8794 17.5436 14.498 16.8236C12.5562 15.8946 10.2397 16.1654 8.59224 17.5728Z" fill="#5829CF"/>
<path d="M14.9517 18.2818C15.8443 19.0575 16.3301 20.0484 16.5451 21.1981C16.5451 21.2753 16.5451 21.3525 16.5451 21.432C13.6121 21.432 10.6791 21.432 7.65723 21.432C7.86154 20.1039 8.35802 18.9565 9.457 18.1285C11.1216 16.9412 13.3498 17.0599 14.9517 18.2818Z" fill="#5829CF"/>
<path d="M13.5478 8.96268C14.0772 9.34172 14.4161 9.85873 14.5565 10.4976C14.6076 11.2219 14.592 11.8733 14.1378 12.4786C13.6987 12.9822 13.1908 13.3896 12.5099 13.4797C11.6768 13.5365 11.0757 13.3688 10.4086 12.8685C9.95816 12.4703 9.67301 11.8296 9.63085 11.2374C9.61482 10.4351 9.79523 9.81478 10.3465 9.21119C11.2629 8.3935 12.5163 8.33029 13.5478 8.96268Z" fill="#5829CF"/>
</svg>
