<svg width="20" height="20" viewBox="0 0 20 20" fill="none" xmlns="http://www.w3.org/2000/svg">
<path d="M4.26024 1.72644C4.29365 1.72627 4.32707 1.7261 4.3615 1.72593C4.3979 1.7259 4.43429 1.72586 4.4718 1.72583C4.51034 1.72568 4.54889 1.72554 4.58861 1.72539C4.69421 1.72501 4.79981 1.72482 4.90542 1.72469C4.97153 1.7246 5.03765 1.72448 5.10376 1.72435C5.311 1.72395 5.51825 1.72367 5.72549 1.72356C5.96398 1.72342 6.20246 1.72291 6.44095 1.72206C6.62575 1.72143 6.81055 1.72114 6.99534 1.7211C7.10549 1.72107 7.21564 1.7209 7.32578 1.72037C7.42959 1.71988 7.53338 1.71983 7.63719 1.72008C7.69288 1.72011 7.74857 1.71972 7.80426 1.7193C8.34746 1.7219 8.76186 1.92089 9.15723 2.28488C9.59233 2.7293 9.68488 3.32196 9.68462 3.91684C9.68472 3.94952 9.68482 3.9822 9.68492 4.01587C9.68519 4.12299 9.68525 4.23011 9.68528 4.33723C9.68538 4.41239 9.68548 4.48755 9.68558 4.56271C9.68575 4.71995 9.68581 4.8772 9.68579 5.03445C9.68577 5.215 9.68608 5.39554 9.68654 5.57609C9.68698 5.75114 9.68708 5.92619 9.68706 6.10124C9.6871 6.17507 9.68722 6.2489 9.68745 6.32274C9.68958 7.08369 9.66419 7.77005 9.11529 8.35783C8.73159 8.70913 8.27374 8.86989 7.76008 8.88643C7.7162 8.88807 7.7162 8.88807 7.67144 8.88975C7.35891 8.90064 7.04641 8.90311 6.73372 8.90371C6.70379 8.9038 6.67387 8.90388 6.64304 8.90396C6.48509 8.9044 6.32713 8.90467 6.16918 8.9048C6.00827 8.90496 5.84737 8.90567 5.68646 8.9065C5.56051 8.90705 5.43456 8.90719 5.30861 8.90724C5.24935 8.90733 5.19009 8.90756 5.13083 8.90795C4.40922 8.91237 3.58371 8.87415 3.02874 8.35109C2.61684 7.90909 2.50381 7.35514 2.50511 6.76859C2.50496 6.73301 2.50481 6.69743 2.50465 6.66077C2.50432 6.56423 2.50425 6.4677 2.50432 6.37117C2.50435 6.29005 2.50421 6.20894 2.50407 6.12782C2.50374 5.93616 2.50373 5.74449 2.50391 5.55282C2.50408 5.35631 2.50372 5.1598 2.5031 4.96328C2.50258 4.79346 2.50241 4.62364 2.50251 4.45381C2.50256 4.35287 2.50249 4.25193 2.50207 4.15099C2.49977 3.43739 2.52497 2.79909 3.04246 2.25072C3.36914 1.94297 3.80635 1.7278 4.26024 1.72644Z" fill="#090415"/>
<path d="M4.7722 11.0989C4.80359 11.0987 4.83499 11.0986 4.86733 11.0984C4.97039 11.098 5.07345 11.0978 5.17651 11.0976C5.22977 11.0975 5.22977 11.0975 5.28411 11.0974C5.47215 11.0969 5.6602 11.0967 5.84824 11.0966C6.04101 11.0964 6.23377 11.0957 6.42654 11.0949C6.57605 11.0943 6.72556 11.0942 6.87508 11.0941C6.94606 11.094 7.01705 11.0938 7.08803 11.0934C7.75373 11.09 8.47031 11.0942 9.00798 11.5424C9.03049 11.5606 9.05301 11.5788 9.0762 11.5976C9.50283 11.9792 9.64138 12.6034 9.68082 13.1514C9.69151 13.4066 9.68979 13.6622 9.68962 13.9176C9.68973 13.9913 9.68986 14.065 9.69 14.1387C9.69022 14.2924 9.69021 14.4462 9.69006 14.5999C9.68988 14.7764 9.69024 14.9529 9.69086 15.1294C9.69144 15.3009 9.69153 15.4723 9.69143 15.6438C9.69144 15.716 9.69159 15.7882 9.69189 15.8604C9.69532 16.8121 9.69532 16.8121 9.48336 17.1994C9.47308 17.2189 9.4628 17.2384 9.4522 17.2585C9.19829 17.7285 8.80822 18.0581 8.29891 18.2193C8.16741 18.2555 8.04722 18.2745 7.91062 18.2749C7.87856 18.2751 7.8465 18.2752 7.81347 18.2754C7.77858 18.2755 7.74368 18.2755 7.70773 18.2755C7.67075 18.2757 7.63377 18.2758 7.59567 18.276C7.49435 18.2763 7.39304 18.2765 7.29172 18.2767C7.22823 18.2767 7.16474 18.2769 7.10125 18.277C6.90209 18.2774 6.70292 18.2777 6.50375 18.2778C6.27486 18.2779 6.04598 18.2784 5.8171 18.2793C5.63958 18.2799 5.46206 18.2802 5.28454 18.2803C5.17882 18.2803 5.07311 18.2805 4.96739 18.281C4.19437 18.2846 3.58951 18.2466 3.00543 17.6912C2.68478 17.3601 2.51139 16.9022 2.50929 16.4399C2.50908 16.4081 2.50887 16.3763 2.50865 16.3435C2.50858 16.309 2.5085 16.2746 2.50842 16.239C2.50822 16.2024 2.50803 16.1657 2.50783 16.128C2.50726 16.0068 2.50691 15.8855 2.50662 15.7643C2.5065 15.7224 2.50638 15.6804 2.50626 15.6385C2.5057 15.4411 2.50529 15.2438 2.50504 15.0465C2.50476 14.8198 2.50399 14.5932 2.50281 14.3666C2.50192 14.1907 2.50149 14.0148 2.50139 13.839C2.50133 13.7343 2.50107 13.6296 2.50033 13.5249C2.49548 12.8052 2.53794 12.1739 3.06942 11.6302C3.56468 11.1951 4.13202 11.0996 4.7722 11.0989Z" fill="#090415"/>
<path d="M12.3259 1.7221C12.3644 1.72195 12.403 1.7218 12.4427 1.72165C12.5478 1.72126 12.6529 1.72124 12.7581 1.72131C12.8462 1.72135 12.9343 1.7212 13.0224 1.72106C13.2304 1.72074 13.4385 1.72072 13.6465 1.7209C13.8603 1.72108 14.0742 1.72072 14.288 1.72009C14.4723 1.71958 14.6566 1.7194 14.8409 1.7195C14.9506 1.71955 15.0604 1.71948 15.1701 1.71907C15.2735 1.7187 15.3768 1.71876 15.4801 1.71914C15.5355 1.71924 15.5909 1.71891 15.6463 1.71857C16.1644 1.72171 16.5789 1.90206 16.9461 2.26391C17.3398 2.67202 17.5062 3.12745 17.5032 3.69138C17.5035 3.74597 17.5035 3.74597 17.5037 3.80166C17.504 3.90044 17.504 3.9992 17.5037 4.09797C17.5035 4.20215 17.5037 4.30633 17.5038 4.41051C17.504 4.58549 17.5038 4.76047 17.5033 4.93545C17.5029 5.13652 17.503 5.33758 17.5035 5.53865C17.5039 5.71243 17.5039 5.8862 17.5037 6.05997C17.5036 6.16325 17.5036 6.26653 17.5039 6.36981C17.5057 7.1166 17.479 7.79735 16.9288 8.36165C16.3899 8.89066 15.6486 8.90707 14.9367 8.90411C14.88 8.90407 14.8232 8.90406 14.7664 8.90407C14.6478 8.90402 14.5292 8.90378 14.4106 8.90338C14.2616 8.90289 14.1126 8.90278 13.9636 8.90279C13.4417 8.90279 12.9196 8.90206 12.3978 8.88928C12.3412 8.88794 12.2847 8.88694 12.2281 8.88595C11.6571 8.86899 11.212 8.66355 10.822 8.25378C10.3943 7.78614 10.3201 7.23743 10.3204 6.6285C10.3203 6.59672 10.3202 6.56494 10.3201 6.5322C10.3198 6.42823 10.3198 6.32425 10.3197 6.22028C10.3197 6.1472 10.3196 6.07413 10.3195 6.00105C10.3193 5.84823 10.3192 5.69541 10.3192 5.54259C10.3193 5.34798 10.3188 5.15338 10.3183 4.95878C10.318 4.80791 10.318 4.65704 10.318 4.50618C10.3179 4.43449 10.3178 4.3628 10.3176 4.29112C10.3156 3.61102 10.3201 3.00575 10.7342 2.43223C10.7492 2.41153 10.7641 2.39083 10.7795 2.3695C11.1591 1.89307 11.7404 1.72092 12.3259 1.7221Z" fill="#090415"/>
<path d="M16.1027 11.8287C16.1978 11.9064 16.2891 11.9876 16.3797 12.0705C16.4013 12.09 16.4229 12.1095 16.4451 12.1295C17.0691 12.7223 17.4689 13.5964 17.4978 14.4549C17.5207 15.5272 17.1774 16.4645 16.4382 17.2484C16.4189 17.27 16.3995 17.2916 16.3795 17.3139C15.8484 17.8824 15.0318 18.2293 14.2603 18.2788C13.2084 18.3125 12.283 18.0791 11.4993 17.3504C11.2689 17.1302 11.0776 16.9057 10.9092 16.6341C10.8829 16.5944 10.8829 16.5944 10.8561 16.554C10.3811 15.8027 10.2233 14.8202 10.3866 13.9497C10.4095 13.8481 10.4381 13.7492 10.4704 13.6502C10.4796 13.6208 10.4796 13.6208 10.489 13.5908C10.6266 13.1588 10.843 12.7619 11.1433 12.4215C11.1637 12.3976 11.1841 12.3737 11.2051 12.3491C12.4101 10.9664 14.6339 10.6676 16.1027 11.8287Z" fill="#090415"/>
</svg>
