<svg width="20" height="20" viewBox="0 0 20 20" fill="none" xmlns="http://www.w3.org/2000/svg">
<path d="M7.65945 2.51737C7.81247 2.59333 7.89254 2.68341 7.99348 2.81799C8.0675 3.04006 8.02688 3.28536 8.02688 3.51944C9.54802 3.51944 11.0692 3.51944 12.6364 3.51944C12.6364 3.32103 12.6364 3.12262 12.6364 2.9182C12.8034 2.58418 12.8034 2.58418 13.0038 2.51737C13.2416 2.49427 13.4151 2.49979 13.6051 2.65098C13.7424 2.8423 13.7562 2.98506 13.747 3.21673C13.7464 3.24595 13.7458 3.27516 13.7452 3.30526C13.7436 3.37667 13.7412 3.44806 13.7387 3.51944C13.7694 3.51892 13.8002 3.51839 13.8319 3.51785C13.9486 3.51612 14.0653 3.51487 14.1821 3.51394C14.2321 3.51344 14.2822 3.51276 14.3322 3.51188C15.1177 3.49843 15.8529 3.694 16.4364 4.24868C16.461 4.27258 16.4857 4.29647 16.511 4.32109C16.5315 4.33914 16.552 4.35718 16.5732 4.37576C17.004 4.76808 17.279 5.4041 17.319 5.98164C17.3215 6.08053 17.3221 6.17923 17.3219 6.27815C17.322 6.31577 17.3222 6.35339 17.3224 6.39216C17.3229 6.5175 17.3229 6.64284 17.3229 6.76819C17.3232 6.85837 17.3235 6.94854 17.3238 7.03872C17.3245 7.28324 17.3248 7.52777 17.325 7.7723C17.3251 7.92529 17.3253 8.07828 17.3255 8.23127C17.3262 8.65573 17.3267 9.08019 17.3268 9.50465C17.3268 9.53177 17.3269 9.55889 17.3269 9.58683C17.3269 9.64179 17.3269 9.69676 17.3269 9.75173C17.3269 9.77901 17.3269 9.80629 17.3269 9.8344C17.3269 9.87537 17.3269 9.87537 17.3269 9.91717C17.3271 10.3592 17.328 10.8012 17.3292 11.2432C17.3305 11.6982 17.3311 12.1531 17.3311 12.6081C17.3312 12.8631 17.3314 13.118 17.3324 13.373C17.3332 13.5902 17.3335 13.8075 17.333 14.0247C17.3327 14.1353 17.3328 14.2458 17.3335 14.3564C17.3386 15.2512 17.1912 15.9702 16.5779 16.6465C16.5509 16.6782 16.5509 16.6782 16.5233 16.7105C16.137 17.1356 15.4828 17.4423 14.9148 17.4893C14.6435 17.502 14.372 17.4998 14.1005 17.4989C14.0091 17.499 13.9177 17.4993 13.8263 17.4996C13.6048 17.5002 13.3833 17.5 13.1618 17.4997C12.9817 17.4993 12.8015 17.4993 12.6214 17.4995C12.5956 17.4995 12.5699 17.4995 12.5433 17.4995C12.491 17.4996 12.4387 17.4996 12.3864 17.4996C11.897 17.5 11.4077 17.4996 10.9183 17.4989C10.4994 17.4983 10.0804 17.4984 9.66147 17.499C9.17373 17.4997 8.68599 17.5 8.19825 17.4996C8.14614 17.4995 8.09402 17.4995 8.04191 17.4995C8.01628 17.4994 7.99064 17.4994 7.96423 17.4994C7.7845 17.4993 7.60478 17.4995 7.42505 17.4998C7.2057 17.5002 6.98637 17.5001 6.76702 17.4993C6.65533 17.499 6.54366 17.4989 6.43197 17.4993C5.8778 17.501 5.37835 17.4894 4.87872 17.2227C4.84555 17.2055 4.84555 17.2055 4.81171 17.1879C4.15711 16.8394 3.67911 16.2865 3.45077 15.5776C3.44231 15.5525 3.43384 15.5273 3.42512 15.5014C3.3104 15.0945 3.33627 14.6722 3.33707 14.2533C3.33693 14.1629 3.33665 14.0726 3.33637 13.9822C3.3358 13.763 3.33577 13.5439 3.33595 13.3247C3.33608 13.1464 3.33603 12.9681 3.33586 12.7897C3.33583 12.7643 3.33581 12.7388 3.33578 12.7126C3.33573 12.6608 3.33568 12.6091 3.33563 12.5573C3.33517 12.073 3.33535 11.5886 3.33573 11.1043C3.33606 10.6622 3.33563 10.2201 3.33483 9.77804C3.33402 9.32297 3.3337 8.8679 3.33392 8.41283C3.33403 8.1578 3.33396 7.90277 3.33338 7.64774C3.33288 7.43062 3.33287 7.21351 3.33345 6.99639C3.33373 6.88585 3.33373 6.77532 3.33329 6.66477C3.32988 5.74199 3.49698 4.97426 4.16057 4.29395C4.64972 3.81047 5.32628 3.51558 6.01688 3.51566C6.03978 3.51583 6.06269 3.516 6.08629 3.51618C6.11042 3.51623 6.13456 3.51627 6.15942 3.51632C6.23564 3.51651 6.31186 3.51693 6.38808 3.51735C6.44012 3.51752 6.49216 3.51767 6.5442 3.51781C6.671 3.51818 6.7978 3.51875 6.9246 3.51944C6.92305 3.47634 6.9215 3.43324 6.91991 3.38883C6.91865 3.33147 6.91744 3.2741 6.91625 3.21673C6.91513 3.18842 6.91402 3.16011 6.91286 3.13094C6.90975 2.92937 6.9415 2.81626 7.05821 2.65098C7.22835 2.4851 7.43373 2.48365 7.65945 2.51737ZM9.22936 6.92647C9.15568 7.04364 9.09425 7.16563 9.03312 7.28972C9.00744 7.34014 9.00744 7.34014 8.98125 7.39158C8.91469 7.52227 8.84908 7.65342 8.78376 7.78473C8.74412 7.86419 8.7039 7.94334 8.66361 8.02248C8.65223 8.04601 8.64084 8.06953 8.62911 8.09377C8.54853 8.25158 8.54853 8.25158 8.45796 8.29981C8.33222 8.33809 8.20602 8.35509 8.07607 8.37151C8.01937 8.37932 7.96268 8.38717 7.90599 8.39506C7.81766 8.40715 7.72933 8.41901 7.64089 8.43018C7.19761 8.48678 6.72055 8.56922 6.40765 8.92421C6.1662 9.27153 6.01445 9.65601 6.07285 10.0851C6.15329 10.4401 6.33642 10.7378 6.61081 10.9721C6.76585 11.107 6.91122 11.2504 7.05613 11.3961C7.08172 11.4216 7.10732 11.447 7.13369 11.4733C7.158 11.4976 7.18231 11.522 7.20735 11.5471C7.22926 11.569 7.25118 11.591 7.27375 11.6136C7.36322 11.7105 7.36687 11.7864 7.36523 11.9163C7.35275 12.0866 7.31825 12.2538 7.2874 12.4215C7.13184 13.222 7.13184 13.222 7.36953 13.9811C7.60687 14.3209 7.93182 14.5465 8.34002 14.6236C8.81898 14.68 9.17153 14.4874 9.57757 14.2638C9.63348 14.233 9.68949 14.2023 9.74558 14.1719C9.79942 14.1426 9.853 14.1128 9.90628 14.0825C10.0772 13.9892 10.2343 13.9281 10.4318 13.9409C10.5247 13.9735 10.5945 14.0038 10.6782 14.0516C10.7006 14.0635 10.7231 14.0754 10.7462 14.0877C10.8466 14.1412 10.9457 14.1967 11.045 14.2521C11.5389 14.5269 11.9578 14.7317 12.5362 14.5756C12.9573 14.4238 13.213 14.1646 13.4015 13.7639C13.582 13.3185 13.4502 12.7955 13.3638 12.3428C13.3425 12.2299 13.3227 12.117 13.3044 12.0036C13.3 11.9775 13.2956 11.9514 13.291 11.9246C13.2816 11.826 13.2928 11.7544 13.3467 11.6712C13.4072 11.5997 13.4712 11.5345 13.5382 11.4692C13.5613 11.4456 13.5843 11.4219 13.6081 11.3976C13.6801 11.324 13.7531 11.2514 13.8263 11.179C13.851 11.1545 13.8756 11.13 13.901 11.1048C14.0005 11.006 14.1 10.9072 14.2006 10.8095C14.2681 10.7395 14.3235 10.671 14.3775 10.5903C14.4014 10.5553 14.4014 10.5553 14.4258 10.5197C14.5448 10.3054 14.5916 10.1148 14.5883 9.87004C14.5881 9.84365 14.5878 9.81726 14.5876 9.79007C14.5817 9.58119 14.5461 9.4136 14.4401 9.23122C14.4256 9.2053 14.411 9.17938 14.396 9.15268C14.2048 8.84021 13.9507 8.64771 13.6051 8.52978C13.3934 8.48086 13.1771 8.45461 12.9621 8.42539C12.8764 8.41349 12.7907 8.40142 12.7051 8.38897C12.6522 8.3813 12.5993 8.37396 12.5464 8.36699C12.1664 8.31259 12.1664 8.31259 12.0609 8.176C12.0224 8.1081 11.9899 8.0394 11.9582 7.96807C11.9459 7.94231 11.9336 7.91656 11.9209 7.89002C11.8817 7.80784 11.8435 7.72526 11.8055 7.64253C11.5639 7.11976 11.3436 6.69381 10.7848 6.45792C10.2116 6.25893 9.61014 6.46684 9.22936 6.92647Z" fill="#090415"/>
<path d="M10.3837 7.42749C10.4086 7.42956 10.4334 7.43163 10.459 7.43376C10.6175 7.49273 10.6864 7.65949 10.7536 7.80546C10.7635 7.82756 10.7735 7.84966 10.7838 7.87242C10.8061 7.92045 10.8285 7.96847 10.8509 8.01647C10.8855 8.09108 10.9199 8.16577 10.9538 8.2407C11.153 8.67938 11.3641 9.05466 11.826 9.26051C12.0253 9.3292 12.2277 9.36065 12.4359 9.38988C12.4785 9.39638 12.5211 9.40288 12.565 9.40958C12.6889 9.42845 12.8129 9.44677 12.9369 9.46503C13.0114 9.47606 13.0859 9.48735 13.1603 9.49896C13.1914 9.5037 13.2225 9.50845 13.2546 9.51334C13.3975 9.54515 13.4557 9.57526 13.5381 9.69885C13.5614 9.80338 13.558 9.89447 13.5381 9.99947C13.4961 10.0625 13.4961 10.0625 13.4395 10.1233C13.4183 10.1463 13.3971 10.1692 13.3752 10.1929C13.3518 10.2172 13.3284 10.2416 13.3043 10.2667C13.2797 10.2924 13.2551 10.318 13.2298 10.3445C13.1516 10.425 13.0726 10.5046 12.9933 10.584C12.9662 10.6115 12.9391 10.6389 12.9113 10.6673C12.8725 10.7061 12.8725 10.7061 12.8329 10.7458C12.8096 10.7693 12.7862 10.7928 12.7621 10.817C12.7031 10.8679 12.7031 10.8679 12.6363 10.8679C12.6228 10.8967 12.6228 10.8967 12.609 10.9261C12.5687 11.003 12.5222 11.0691 12.4713 11.1393C12.1774 11.5807 12.2558 12.0629 12.3524 12.5589C12.4969 13.306 12.4969 13.306 12.3711 13.513C12.2332 13.5946 12.1255 13.5932 11.9682 13.5735C11.8699 13.5411 11.7828 13.4947 11.6925 13.4443C11.6676 13.4311 11.6427 13.418 11.6171 13.4044C11.5383 13.3625 11.4599 13.3199 11.3816 13.2771C11.3031 13.2346 11.2245 13.1924 11.1457 13.1505C11.097 13.1245 11.0484 13.0982 11 13.0715C10.7876 12.9575 10.5793 12.896 10.3357 12.895C10.3048 12.8945 10.2739 12.8939 10.242 12.8933C9.96211 12.924 9.71691 13.0362 9.46932 13.1643C9.44035 13.179 9.41138 13.1936 9.38154 13.2087C9.25262 13.2742 9.12496 13.341 8.99987 13.4135C8.65633 13.6116 8.65633 13.6116 8.45695 13.5914C8.33468 13.5566 8.29297 13.5147 8.22718 13.4065C8.18626 13.0801 8.27323 12.7505 8.33482 12.432C8.41695 11.9878 8.45139 11.5595 8.21296 11.1545C8.07054 10.9587 7.88857 10.7965 7.71727 10.6264C7.66765 10.577 7.61803 10.5276 7.56843 10.4782C7.53419 10.4442 7.49991 10.4101 7.46561 10.3761C7.41581 10.3267 7.36612 10.2772 7.31645 10.2277C7.27212 10.1836 7.27212 10.1836 7.2269 10.1387C7.11403 10.0195 7.1131 9.93093 7.1159 9.77204C7.1249 9.69885 7.1249 9.69885 7.17501 9.61743C7.35702 9.50367 7.59094 9.48535 7.80078 9.45511C7.85289 9.44715 7.90499 9.43914 7.95709 9.43111C8.03765 9.41877 8.11822 9.40663 8.1989 9.39509C8.66784 9.32753 9.09195 9.22584 9.39626 8.83039C9.47159 8.71173 9.53484 8.58909 9.59667 8.46296C9.61372 8.42939 9.63078 8.39582 9.64835 8.36122C9.72626 8.20729 9.80203 8.05242 9.87628 7.89669C9.8881 7.87219 9.89992 7.84769 9.9121 7.82245C9.93354 7.77771 9.95454 7.73274 9.97499 7.68754C10.0629 7.50287 10.1736 7.40411 10.3837 7.42749Z" fill="#090415"/>
</svg>
