<svg width="23" height="30" viewBox="0 0 23 30" fill="none" xmlns="http://www.w3.org/2000/svg">
<path d="M4.10591 0.000192984C4.15338 0.000135847 4.20085 7.87091e-05 4.24976 1.98402e-05C4.40881 -9.02964e-05 4.56785 0.00027755 4.7269 0.000642976C4.84092 0.000661838 4.95493 0.000651251 5.06895 0.000613384C5.37855 0.000594178 5.68816 0.000987688 5.99776 0.00145423C6.32129 0.00187193 6.64482 0.00191153 6.96835 0.00199091C7.58103 0.00219885 8.19371 0.00274777 8.80639 0.0034186C9.50389 0.00416574 10.2014 0.00453366 10.8989 0.00486942C12.3337 0.00556863 13.7686 0.00674507 15.2034 0.00823467C15.2038 0.0617462 15.2042 0.115258 15.2046 0.170391C15.2085 0.677951 15.2134 1.18549 15.2192 1.69303C15.2222 1.95388 15.2248 2.21472 15.2266 2.47558C15.2284 2.72795 15.2311 2.98029 15.2344 3.23264C15.2355 3.32829 15.2363 3.42393 15.2367 3.51958C15.2418 4.56888 15.4234 5.4929 16.1605 6.28586C16.981 7.03353 17.9499 7.20369 19.0248 7.20431C19.1255 7.20532 19.2262 7.20644 19.3269 7.20766C19.5889 7.21056 19.8509 7.21192 20.1128 7.21293C20.3814 7.21425 20.65 7.21705 20.9185 7.21972C21.4432 7.22473 21.9678 7.22811 22.4925 7.23043C22.4971 9.70322 22.5006 12.176 22.5028 14.6488C22.503 14.941 22.5033 15.2332 22.5035 15.5254C22.5036 15.5836 22.5036 15.6417 22.5037 15.7017C22.5046 16.6425 22.5061 17.5833 22.508 18.5241C22.5099 19.4901 22.511 20.456 22.5114 21.422C22.5117 22.0177 22.5125 22.6133 22.5142 23.209C22.5152 23.6179 22.5155 24.0268 22.5153 24.4357C22.5152 24.6714 22.5153 24.907 22.5164 25.1426C22.5174 25.3988 22.5172 25.655 22.5166 25.9113C22.5172 25.9847 22.5178 26.0582 22.5184 26.1338C22.512 27.2541 22.1649 28.2013 21.3857 29.0162C20.6508 29.6819 19.8243 29.977 18.8498 29.9768C18.7856 29.9771 18.7215 29.9773 18.6555 29.9776C18.4404 29.9783 18.2254 29.9786 18.0104 29.9788C17.8562 29.9792 17.7021 29.9797 17.548 29.9802C17.0416 29.9816 16.5353 29.9823 16.0289 29.9829C15.8544 29.9832 15.68 29.9835 15.5055 29.9838C14.7796 29.9849 14.0537 29.9859 13.3277 29.9863C13.1395 29.9865 12.9513 29.9866 12.7631 29.9867C12.6929 29.9868 12.6929 29.9868 12.6213 29.9868C11.8643 29.9874 11.1073 29.9891 10.3503 29.9912C9.57199 29.9935 8.79373 29.9946 8.01545 29.9949C7.57891 29.995 7.14238 29.9956 6.70584 29.9973C6.29484 29.9989 5.88385 29.9992 5.47284 29.9985C5.32245 29.9984 5.17206 29.9989 5.02167 29.9998C3.6693 30.0076 2.66787 29.8133 1.64562 28.8584C1.41057 28.6063 1.24773 28.3344 1.0934 28.0277C1.05435 27.9522 1.05435 27.9522 1.01451 27.8751C0.690036 27.2025 0.672548 26.5245 0.674734 25.7889C0.674531 25.6919 0.674271 25.5948 0.673958 25.4978C0.673273 25.2326 0.673416 24.9674 0.673703 24.7022C0.673868 24.4156 0.673265 24.129 0.672764 23.8424C0.671913 23.2815 0.671792 22.7206 0.671948 22.1597C0.672068 21.7036 0.67195 21.2475 0.671666 20.7914C0.671626 20.7264 0.671586 20.6614 0.671545 20.5945C0.671464 20.4624 0.671383 20.3304 0.671302 20.1984C0.670575 18.9609 0.670719 17.7234 0.671127 16.486C0.671472 15.3549 0.67072 14.2239 0.669448 13.0929C0.668152 11.9304 0.667601 10.7679 0.667852 9.60547C0.667979 8.95328 0.667815 8.3011 0.666868 7.64891C0.66607 7.09366 0.665978 6.53842 0.666787 5.98318C0.66718 5.70014 0.667256 5.41711 0.666452 5.13407C0.665723 4.87448 0.665937 4.6149 0.666871 4.35531C0.667047 4.26189 0.666892 4.16847 0.666354 4.07506C0.659834 2.85869 0.944203 1.85301 1.79895 0.959074C2.44174 0.376777 3.23674 -0.000436852 4.10591 0.000192984ZM5.34005 7.35634C4.901 7.97442 4.85274 8.63415 4.90512 9.37035C5.00246 9.8187 5.18982 10.1727 5.48241 10.5236C5.57785 10.6461 5.64016 10.769 5.70758 10.9084C5.66617 10.9225 5.62475 10.9366 5.58208 10.9511C5.39094 11.0168 5.20028 11.0838 5.0096 11.1508C4.94448 11.173 4.87935 11.1951 4.81225 11.218C4.12464 11.4617 3.50693 11.8032 3.15181 12.4645C2.92321 12.9568 2.88368 13.4012 2.87805 13.9386C2.87514 14.03 2.87514 14.03 2.87217 14.1234C2.86836 14.5327 2.92503 14.85 3.16644 15.1882C3.49763 15.4631 3.79099 15.5304 4.21237 15.532C4.27273 15.5324 4.33309 15.5327 4.39528 15.5331C4.46066 15.5332 4.52605 15.5333 4.59342 15.5334C4.66294 15.5337 4.73246 15.534 4.8041 15.5344C5.03386 15.5353 5.26362 15.5358 5.49338 15.5362C5.65339 15.5366 5.81339 15.5369 5.97339 15.5373C6.30888 15.538 6.64437 15.5384 6.97985 15.5387C7.40896 15.539 7.83805 15.5406 8.26715 15.5425C8.59771 15.5438 8.92828 15.5441 9.25884 15.5442C9.41699 15.5444 9.57515 15.545 9.7333 15.5458C9.95495 15.547 10.1766 15.5469 10.3982 15.5464C10.4955 15.5474 10.4955 15.5474 10.5947 15.5483C11.0206 15.5457 11.5019 15.5223 11.8348 15.2249C12.1847 14.8149 12.144 14.4695 12.1482 13.9511C12.1502 13.8744 12.1521 13.7977 12.1541 13.7186C12.1594 13.0064 11.9868 12.4608 11.5255 11.9131C10.9451 11.3259 10.0854 11.1456 9.31868 10.9084C9.35827 10.8577 9.35827 10.8577 9.39866 10.8059C9.60743 10.5339 9.78993 10.2688 9.94143 9.95966C9.97427 9.89388 10.0071 9.82811 10.041 9.76035C10.3063 9.13367 10.2227 8.45533 9.9874 7.83228C9.6539 7.11076 9.14455 6.66709 8.42113 6.35509C7.23288 5.9356 6.11349 6.43395 5.34005 7.35634ZM17.1093 10.5364C17.028 10.6181 16.9467 10.6997 16.8653 10.7813C16.6678 10.9795 16.4706 11.178 16.2734 11.3765C16.012 11.1579 15.764 10.9387 15.5336 10.6869C15.3688 10.5211 15.2782 10.4434 15.0572 10.3567C14.8037 10.3792 14.7059 10.4551 14.5347 10.6409C14.451 10.7975 14.451 10.7975 14.4678 10.9753C14.6903 11.3717 15.0105 11.6786 15.3288 11.9993C15.3817 12.0543 15.4345 12.1093 15.4889 12.166C15.5667 12.2445 15.5667 12.2445 15.6459 12.3245C15.6926 12.372 15.7392 12.4195 15.7872 12.4685C15.9786 12.6093 16.1032 12.6414 16.3403 12.6471C16.5739 12.5262 16.7535 12.3842 16.9387 12.1987C16.9879 12.1496 17.0372 12.1005 17.088 12.0499C17.1402 11.9973 17.1924 11.9446 17.2462 11.8903C17.3276 11.8089 17.3276 11.8089 17.4107 11.7257C17.525 11.6112 17.6392 11.4964 17.7533 11.3816C17.9284 11.2052 18.1041 11.0294 18.2798 10.8537C18.3909 10.7423 18.5019 10.6309 18.6129 10.5195C18.692 10.4402 18.692 10.4402 18.7727 10.3594C18.8211 10.3106 18.8696 10.2617 18.9195 10.2113C18.9623 10.1683 19.0051 10.1252 19.0492 10.0809C19.1875 9.93013 19.2143 9.85225 19.2367 9.64619C19.2323 9.43419 19.2323 9.43419 19.1071 9.2784C18.9533 9.15967 18.9533 9.15967 18.7644 9.12375C18.1357 9.25674 17.554 10.0885 17.1093 10.5364ZM5.75774 17.2738C5.2694 17.7286 4.94845 18.3537 4.88396 19.0169C4.85449 19.8828 5.08041 20.4899 5.64071 21.1399C5.70691 21.2392 5.70691 21.2392 5.77445 21.3405C5.73144 21.3511 5.68842 21.3617 5.64411 21.3726C4.65581 21.6278 3.76688 21.9292 3.17558 22.8096C2.89614 23.3089 2.87807 23.8401 2.86969 24.3999C2.8682 24.46 2.86671 24.5202 2.86517 24.5821C2.86656 24.9861 2.93189 25.2226 3.16644 25.5534C3.44049 25.8074 3.64378 25.8956 4.0139 25.8981C4.11021 25.8989 4.11021 25.8989 4.20847 25.8998C4.31399 25.9002 4.31399 25.9002 4.42165 25.9007C4.49583 25.9012 4.57 25.9018 4.64643 25.9023C4.89244 25.904 5.13844 25.9051 5.38445 25.9061C5.46845 25.9064 5.55244 25.9068 5.63898 25.9072C5.99207 25.9086 6.34516 25.9098 6.69825 25.9106C7.20341 25.9117 7.70853 25.9139 8.21368 25.9177C8.61226 25.9206 9.01083 25.9217 9.40942 25.9221C9.57864 25.9226 9.74786 25.9236 9.91708 25.9252C10.1542 25.9273 10.3911 25.9273 10.6282 25.9268C10.7327 25.9284 10.7327 25.9285 10.8394 25.9301C11.2843 25.9263 11.5839 25.845 11.9267 25.5534C12.2196 25.192 12.1592 24.7813 12.1566 24.3372C12.1579 24.2582 12.1592 24.1792 12.1606 24.0978C12.1602 23.324 11.9706 22.7874 11.4319 22.2268C10.9193 21.7827 9.94363 21.3405 9.25181 21.3405C9.25181 21.2963 9.25181 21.2522 9.25181 21.2067C9.31801 21.1847 9.38422 21.1626 9.45243 21.1399C9.9244 20.6274 10.1865 19.9618 10.2215 19.2674C10.1893 18.6089 9.96244 18.0137 9.5193 17.5288C9.48499 17.4876 9.45068 17.4465 9.41533 17.4042C8.97074 16.9074 8.36661 16.6904 7.71662 16.603C6.97493 16.5649 6.33131 16.8132 5.75774 17.2738ZM17.9891 20.1445C17.9088 20.2249 17.8289 20.3055 17.7493 20.3865C17.7068 20.4292 17.6643 20.4718 17.6206 20.5158C17.486 20.6511 17.352 20.7868 17.218 20.9225C17.1264 21.0148 17.0348 21.107 16.9432 21.1992C16.7195 21.4242 16.4964 21.6497 16.2734 21.8755C16.1987 21.8119 16.1241 21.7483 16.0495 21.6846C16.008 21.6492 15.9664 21.6137 15.9236 21.5772C15.7278 21.4067 15.5433 21.2239 15.3578 21.0422C15.1591 20.9097 15.0367 20.9118 14.8022 20.9392C14.6435 21.0593 14.5584 21.1578 14.472 21.3363C14.4642 21.5951 14.6443 21.7805 14.8066 21.9693C14.9767 22.1468 15.148 22.3229 15.3205 22.4982C15.3794 22.5605 15.4384 22.6228 15.4991 22.6869C15.586 22.7752 15.586 22.7752 15.6747 22.8652C15.727 22.9191 15.7793 22.973 15.8332 23.0286C16.0027 23.1585 16.0027 23.1585 16.2214 23.1991C16.6167 23.116 16.8256 22.8599 17.1025 22.5774C17.1611 22.5191 17.2196 22.4608 17.2799 22.4008C17.4349 22.2458 17.5887 22.0898 17.7422 21.9333C17.8364 21.838 17.9314 21.7435 18.0267 21.6493C18.2102 21.4679 18.3921 21.2852 18.5737 21.102C18.6304 21.0459 18.6871 20.9898 18.7455 20.932C19.0652 20.6166 19.0652 20.6166 19.2274 20.2099C19.2341 19.99 19.2341 19.99 19.0695 19.8066C18.6355 19.4883 18.3135 19.8324 17.9891 20.1445Z" fill="#5829CF"/>
<path d="M9.16254 22.2595C9.31662 22.3146 9.47153 22.3666 9.62677 22.4184C10.757 22.8064 10.757 22.8064 11.0688 23.3463C11.265 23.8104 11.1924 24.4107 11.1924 24.8847C8.787 24.8847 6.3816 24.8847 3.90332 24.8847C3.90332 23.4132 3.90332 23.4132 4.17081 23.0792C4.45431 22.8151 4.71089 22.67 5.0822 22.5536C5.12983 22.5379 5.17745 22.5222 5.22651 22.506C5.37728 22.4566 5.52843 22.4084 5.67961 22.3603C5.7813 22.327 5.88296 22.2937 5.98459 22.2602C7.14131 21.8829 8.01714 21.8476 9.16254 22.2595Z" fill="#5829CF"/>
<path d="M9.21658 11.9066C9.37475 11.9618 9.53348 12.0151 9.69234 12.0682C9.79438 12.1033 9.89639 12.1384 9.99836 12.1737C10.0686 12.1972 10.0686 12.1972 10.1402 12.2211C10.5299 12.3598 10.8171 12.5466 11.0461 12.902C11.2365 13.4131 11.1924 13.9053 11.1924 14.4526C8.787 14.4526 6.38161 14.4526 3.90332 14.4526C3.90332 12.9631 3.90332 12.9631 4.28366 12.5718C4.85386 12.1323 5.67039 11.9639 6.34834 11.7568C6.404 11.7398 6.45966 11.7228 6.517 11.7052C7.50662 11.412 8.26723 11.5744 9.21658 11.9066Z" fill="#5829CF"/>
<path d="M16.207 0.275696C16.5665 0.575882 16.901 0.893246 17.2316 1.22479C17.3119 1.30494 17.3119 1.30494 17.3939 1.38671C17.5695 1.56207 17.7449 1.73767 17.9203 1.91328C18.0426 2.0355 18.1649 2.15771 18.2871 2.27991C18.5426 2.53527 18.798 2.79076 19.0532 3.04634C19.3486 3.34208 19.6442 3.63758 19.9399 3.93295C20.2248 4.21744 20.5094 4.50212 20.794 4.78688C20.9151 4.90801 21.0362 5.02909 21.1574 5.15012C21.326 5.31854 21.4943 5.48717 21.6627 5.65586C21.7132 5.70626 21.7637 5.75666 21.8158 5.8086C21.8613 5.85425 21.9067 5.8999 21.9536 5.94693C22.0133 6.00672 22.0133 6.00672 22.0743 6.06771C22.1586 6.16045 22.1586 6.16045 22.1586 6.22732C21.6284 6.23199 21.0982 6.23555 20.568 6.23772C20.3218 6.23876 20.0756 6.24017 19.8293 6.24246C19.5913 6.24465 19.3533 6.24584 19.1152 6.24636C18.9811 6.2469 18.847 6.24847 18.7129 6.25005C17.949 6.25019 17.421 6.12054 16.8381 5.60876C16.2376 4.93133 16.1869 4.29081 16.1939 3.41033C16.1942 3.31964 16.1944 3.22895 16.1945 3.13825C16.195 2.90123 16.1963 2.66422 16.1978 2.4272C16.1992 2.18467 16.1998 1.94214 16.2004 1.6996C16.2019 1.22496 16.2042 0.75033 16.207 0.275696Z" fill="#5829CF"/>
<path d="M8.5839 7.56481C8.9364 7.88045 9.13825 8.24417 9.20691 8.71208C9.23242 9.17943 9.10494 9.61834 8.80019 9.97769C8.43058 10.3233 8.05481 10.5105 7.54738 10.5323C7.03283 10.5102 6.66685 10.3198 6.29457 9.96803C5.94302 9.58225 5.86305 9.21733 5.88394 8.69902C5.94847 8.18944 6.16393 7.84565 6.56467 7.52771C7.18528 7.11913 7.97546 7.12449 8.5839 7.56481Z" fill="#5829CF"/>
<path d="M8.32969 17.7889C8.73682 18.0381 9.02405 18.4003 9.15645 18.8604C9.28383 19.4519 9.10883 19.8824 8.81033 20.3875C8.44404 20.7345 8.05197 20.8933 7.54812 20.9141C7.07455 20.894 6.6945 20.7571 6.33632 20.4429C5.96149 20.0291 5.86629 19.6137 5.88258 19.0712C5.94432 18.6052 6.14219 18.2531 6.5116 17.9634C7.04532 17.5932 7.72866 17.5235 8.32969 17.7889Z" fill="#5829CF"/>
</svg>
