<svg width="31" height="30" viewBox="0 0 31 30" fill="none" xmlns="http://www.w3.org/2000/svg">
<path d="M9.61771 0.683241C9.71187 0.730899 9.71187 0.730899 9.80794 0.77952C10.7218 1.27831 11.4419 2.07315 12.1704 2.8023C12.2717 2.90339 12.373 3.00446 12.4744 3.10553C12.6855 3.31628 12.8965 3.52725 13.1073 3.73837C13.3758 4.00716 13.6449 4.27528 13.9142 4.54321C14.1233 4.7514 14.3319 4.96001 14.5404 5.16873C14.6394 5.2677 14.7386 5.36652 14.8378 5.4652C16.2198 6.83977 16.2198 6.83977 16.585 7.62828C16.604 7.66811 16.623 7.70793 16.6426 7.74896C17.3875 9.34161 17.477 11.0472 16.8919 12.7088C16.7705 12.9974 16.6206 13.2623 16.4572 13.5291C16.3715 13.6823 16.3715 13.6823 16.4247 13.8182C16.5079 13.9285 16.5928 14.0249 16.6926 14.1205C16.749 14.1744 16.8053 14.2283 16.8634 14.2838C17.1039 14.2095 17.3149 14.1188 17.5352 13.998C18.9864 13.2652 20.6779 13.2309 22.2076 13.7282C23.5977 14.206 24.5744 15.2052 25.5906 16.2205C25.6918 16.3213 25.793 16.4221 25.8942 16.5229C26.1051 16.7331 26.3158 16.9436 26.5264 17.1542C26.7942 17.422 27.0628 17.689 27.3316 17.9558C27.5405 18.1634 27.7489 18.3716 27.9571 18.5798C28.0559 18.6784 28.1548 18.7768 28.2539 18.875C28.9738 19.5888 29.6842 20.3204 30.1038 21.2585C30.1254 21.3053 30.147 21.3521 30.1692 21.4003C30.3676 21.8464 30.4907 22.2977 30.5827 22.7767C30.5997 22.8562 30.5997 22.8562 30.617 22.9373C30.7252 23.7829 30.6957 24.6877 30.4639 25.5087C30.448 25.5676 30.4322 25.6266 30.4159 25.6873C29.9394 27.2755 28.8438 28.5363 27.3933 29.3227C25.9794 30.0572 24.2631 30.1988 22.7431 29.7255C21.2995 29.2629 20.3141 28.3341 19.2678 27.2835C19.1639 27.1797 19.06 27.076 18.956 26.9722C18.7395 26.756 18.5233 26.5394 18.3074 26.3226C18.0323 26.0465 17.7564 25.7713 17.4803 25.4962C17.266 25.2825 17.0521 25.0684 16.8383 24.8542C16.7368 24.7526 16.6352 24.6511 16.5335 24.5498C15.0715 23.0925 14.102 21.6013 14.0497 19.4768C14.0763 18.4053 14.3326 17.3803 14.894 16.4639C14.9796 16.3107 14.9796 16.3107 14.9265 16.1748C14.8433 16.0644 14.7584 15.968 14.6585 15.8725C14.6022 15.8186 14.5458 15.7647 14.4878 15.7092C14.2472 15.7835 14.0363 15.8741 13.8159 15.995C12.359 16.7297 10.6821 16.7518 9.14612 16.2667C8.34074 15.9976 7.62165 15.5652 7.0084 14.9791C6.97046 14.9432 6.93252 14.9074 6.89343 14.8704C6.42778 14.4283 5.972 13.9761 5.51696 13.5231C5.47076 13.4771 5.42456 13.4312 5.37696 13.3838C5.13305 13.1411 4.88932 12.8982 4.64573 12.6552C4.39673 12.4069 4.14705 12.1592 3.89721 11.9118C3.70257 11.7187 3.50846 11.5251 3.3145 11.3313C3.22274 11.2398 3.13079 11.1486 3.03863 11.0575C2.33787 10.3647 1.65488 9.64562 1.24732 8.73444C1.22573 8.68765 1.20414 8.64086 1.1819 8.59265C0.983519 8.14661 0.860445 7.69523 0.768481 7.21626C0.757151 7.16328 0.74582 7.1103 0.734146 7.05572C0.625935 6.21006 0.655417 5.30527 0.887263 4.48427C0.903111 4.42532 0.918958 4.36637 0.935286 4.30563C1.39637 2.76867 2.44845 1.50182 3.85239 0.731032C5.66044 -0.225786 7.79818 -0.245042 9.61771 0.683241ZM4.28739 3.60825C3.65648 4.28594 3.23888 5.2141 3.2664 6.14742C3.37474 7.83004 4.50694 8.82579 5.62762 9.9494C5.67149 9.99344 5.71536 10.0375 5.76056 10.0829C5.99214 10.3153 6.22388 10.5476 6.45577 10.7798C6.69372 11.018 6.93111 11.2569 7.16838 11.4958C7.35258 11.6811 7.53718 11.866 7.72189 12.0508C7.80958 12.1387 7.89711 12.2267 7.98449 12.3149C8.77187 13.1231 8.77187 13.1231 9.74391 13.6787C9.79919 13.7012 9.85446 13.7236 9.91141 13.7467C10.3352 13.8914 10.705 13.9487 11.1507 13.946C11.2287 13.9459 11.2287 13.9459 11.3082 13.9458C11.6951 13.94 12.0457 13.8893 12.4091 13.7493C12.428 13.5697 12.428 13.5697 12.3162 13.4588C12.2511 13.3956 12.2511 13.3956 12.1846 13.3311C12.1357 13.2831 12.0867 13.2352 12.0363 13.1857C11.9828 13.1341 11.9294 13.0825 11.8743 13.0294C11.7915 12.9481 11.7088 12.8667 11.626 12.7854C11.4214 12.5844 11.2158 12.3844 11.0099 12.1846C10.8945 12.0725 10.7795 11.96 10.665 11.8471C10.5568 11.7407 10.448 11.6348 10.3386 11.5297C10.2898 11.4815 10.2411 11.4334 10.1908 11.3837C10.1474 11.3415 10.1041 11.2993 10.0594 11.2559C9.97405 11.1361 9.97405 11.1361 9.98081 11.0127C10.0716 10.8157 10.2302 10.674 10.3817 10.5224C10.4166 10.487 10.4516 10.4516 10.4876 10.4152C10.5615 10.3406 10.6356 10.2663 10.71 10.1922C10.8239 10.0784 10.9365 9.96331 11.049 9.84814C11.121 9.77587 11.193 9.70368 11.2651 9.63157C11.2988 9.59693 11.3324 9.56229 11.3671 9.52661C11.4638 9.43163 11.4638 9.43163 11.637 9.29494C11.8617 9.30826 11.9706 9.42928 12.1232 9.5846C12.1957 9.65772 12.1957 9.65772 12.2697 9.73232C12.3213 9.78528 12.373 9.83824 12.4262 9.8928C12.4797 9.94676 12.5331 10.0007 12.5882 10.0563C12.73 10.1996 12.8715 10.3433 13.0127 10.4872C13.2122 10.6903 13.4119 10.8931 13.6121 11.0954C13.7187 11.2032 13.825 11.3113 13.931 11.4196C14.0029 11.4925 14.0029 11.4925 14.0763 11.5668C14.1398 11.6314 14.1398 11.6314 14.2045 11.6973C14.3012 11.8024 14.3012 11.8024 14.4284 11.7894C14.7296 10.7297 14.7488 9.80403 14.2613 8.79012C14.0764 8.4773 13.8591 8.22415 13.6083 7.96223C13.5692 7.92095 13.53 7.87967 13.4897 7.83715C13.071 7.39722 12.6442 6.96539 12.2154 6.53535C12.1745 6.4943 12.1336 6.45324 12.0915 6.41095C11.8759 6.19452 11.6602 5.97826 11.4444 5.76215C11.2237 5.5412 11.0037 5.3197 10.7837 5.09808C10.6121 4.92529 10.44 4.75292 10.2678 4.58064C10.1865 4.49918 10.1054 4.41757 10.0244 4.33581C8.41009 2.70684 6.23767 1.79261 4.28739 3.60825ZM18.8827 16.2437C18.97 16.4458 19.0828 16.577 19.2385 16.7318C19.3116 16.8049 19.3116 16.8049 19.3862 16.8794C19.4388 16.9315 19.4915 16.9835 19.5457 17.0371C19.5996 17.0908 19.6535 17.1445 19.709 17.1999C19.8519 17.3423 19.9951 17.4844 20.1384 17.6264C20.2847 17.7715 20.4307 17.9169 20.5767 18.0623C20.863 18.3473 21.1496 18.6319 21.4365 18.9163C21.2161 19.1792 20.9898 19.4296 20.7465 19.6714C20.7018 19.716 20.7018 19.716 20.6562 19.7615C20.5625 19.8548 20.4687 19.9479 20.3749 20.041C20.3107 20.1049 20.2465 20.1688 20.1823 20.2328C20.0264 20.388 19.8703 20.5431 19.7141 20.698C19.512 20.6106 19.3808 20.4979 19.2261 20.3422C19.1773 20.2935 19.1286 20.2447 19.0784 20.1945C19.0264 20.1419 18.9743 20.0892 18.9207 20.035C18.867 19.9811 18.8133 19.9272 18.758 19.8717C18.6155 19.7288 18.4735 19.5856 18.3315 19.4423C18.1864 19.296 18.0409 19.15 17.8955 19.004C17.6106 18.7177 17.3259 18.4311 17.0416 18.1442C16.9116 18.1928 16.9116 18.1928 16.8743 18.3247C16.5862 19.3233 16.6366 20.2614 17.0898 21.2028C17.2748 21.5157 17.492 21.7688 17.7428 22.0307C17.782 22.072 17.8211 22.1133 17.8614 22.1558C18.2801 22.5958 18.707 23.0276 19.1358 23.4576C19.1767 23.4987 19.2175 23.5397 19.2597 23.582C19.4752 23.7984 19.6909 24.0147 19.9068 24.2308C20.1274 24.4518 20.3475 24.6733 20.5674 24.8949C20.7391 25.0677 20.9111 25.2401 21.0833 25.4123C21.1646 25.4938 21.2457 25.5754 21.3267 25.6572C22.2824 26.6215 23.2231 27.3923 24.6436 27.4092C25.5808 27.3521 26.5115 26.978 27.1607 26.2806C27.7637 25.5363 28.1867 24.5822 28.0882 23.6082C28.0109 23.1233 27.903 22.6763 27.6725 22.2422C27.6505 22.1994 27.6284 22.1566 27.6057 22.1125C27.2457 21.4857 26.7065 21.0055 26.1977 20.5004C26.0932 20.3958 25.9887 20.2912 25.8842 20.1866C25.6659 19.9682 25.4471 19.7502 25.2281 19.5325C24.9484 19.2545 24.6697 18.9756 24.3912 18.6964C24.1758 18.4805 23.9599 18.2651 23.7439 18.0498C23.6409 17.9472 23.5382 17.8444 23.4355 17.7415C23.2916 17.5974 23.1471 17.4539 23.0025 17.3106C22.9608 17.2687 22.9192 17.2268 22.8763 17.1836C22.0892 16.408 21.1917 15.9882 20.0854 15.9833C19.6609 15.9932 19.2819 16.104 18.8827 16.2437Z" fill="#5829CF"/>
<path d="M10.6311 18.8978C11.9207 19.9862 12.8176 21.3647 13.003 23.0737C13.0408 23.8785 13.0464 24.6699 12.8248 25.4493C12.7955 25.5574 12.7955 25.5574 12.7657 25.6677C12.5187 26.4905 12.098 27.2487 11.5182 27.8844C11.4778 27.929 11.4778 27.929 11.4366 27.9745C10.4125 29.0927 8.98357 29.898 7.44089 29.9705C6.68275 29.9905 5.95726 29.9923 5.2228 29.7849C5.16385 29.769 5.1049 29.7532 5.04417 29.7369C3.43159 29.2531 2.14621 28.1233 1.3496 26.6551C0.649356 25.3086 0.474396 23.6449 0.887275 22.1828C0.903123 22.1239 0.91897 22.0649 0.935298 22.0042C1.39307 20.4783 2.46249 19.1513 3.85681 18.3818C6.01344 17.2534 8.68626 17.4102 10.6311 18.8978ZM9.0393 21.6181C9.00918 21.6486 8.97907 21.6791 8.94804 21.7106C8.91616 21.7425 8.88428 21.7743 8.85144 21.8072C8.74575 21.9129 8.64049 22.0191 8.53523 22.1253C8.46219 22.1986 8.38912 22.2718 8.31603 22.345C8.12342 22.5381 7.93118 22.7315 7.739 22.925C7.54295 23.1222 7.34657 23.3192 7.15022 23.5161C6.76478 23.9028 6.37971 24.2899 5.99488 24.6773C5.7555 24.567 5.59204 24.4084 5.40933 24.2221C5.37671 24.1893 5.34409 24.1565 5.31048 24.1227C5.20673 24.0183 5.10341 23.9135 5.00009 23.8087C4.92967 23.7376 4.85922 23.6667 4.78874 23.5957C4.61636 23.422 4.44436 23.248 4.27255 23.0737C4.00436 23.298 3.74915 23.5296 3.50418 23.779C3.4749 23.8085 3.44561 23.8381 3.41544 23.8685C3.34466 23.94 3.27407 24.0117 3.20352 24.0834C3.4857 24.4229 3.78829 24.7353 4.10134 25.0464C4.1777 25.1226 4.1777 25.1226 4.2556 25.2004C4.41701 25.3615 4.57863 25.5223 4.74025 25.6832C4.85023 25.7929 4.9602 25.9026 5.07015 26.0123C5.33864 26.2801 5.60731 26.5478 5.8761 26.8153C6.16735 26.571 6.44182 26.3173 6.70976 26.0478C6.74921 26.0084 6.78866 25.9689 6.82931 25.9283C6.95831 25.7992 7.08709 25.67 7.21587 25.5408C7.30581 25.4507 7.39576 25.3607 7.48573 25.2706C7.72145 25.0347 7.957 24.7986 8.19251 24.5624C8.43327 24.321 8.6742 24.0798 8.91512 23.8386C9.38705 23.366 9.85879 22.8933 10.3304 22.4204C10.2744 22.3546 10.2184 22.2889 10.1623 22.2232C10.1311 22.1866 10.0998 22.15 10.0677 22.1123C9.93796 21.9632 9.80145 21.822 9.66226 21.6817C9.58647 21.6047 9.58647 21.6047 9.50915 21.5261C9.2891 21.3294 9.22711 21.4314 9.0393 21.6181Z" fill="#5829CF"/>
</svg>
