<svg width="20" height="20" viewBox="0 0 20 20" fill="none" xmlns="http://www.w3.org/2000/svg">
<g opacity="0.8">
<path d="M7.29199 8.33333C7.29199 7.61504 7.57733 6.92616 8.08524 6.41825C8.59316 5.91034 9.28203 5.625 10.0003 5.625C10.7186 5.625 11.4075 5.91034 11.9154 6.41825C12.4233 6.92616 12.7087 7.61504 12.7087 8.33333C12.7087 9.05163 12.4233 9.7405 11.9154 10.2484C11.4075 10.7563 10.7186 11.0417 10.0003 11.0417C9.28203 11.0417 8.59316 10.7563 8.08524 10.2484C7.57733 9.7405 7.29199 9.05163 7.29199 8.33333Z" fill="#3A3644"/>
<path fill-rule="evenodd" clip-rule="evenodd" d="M3.14543 7.3975C3.28404 5.72229 4.04728 4.16039 5.28373 3.02165C6.52018 1.88292 8.1395 1.25055 9.82043 1.25H10.1804C11.8614 1.25055 13.4807 1.88292 14.7171 3.02165C15.9536 4.16039 16.7168 5.72229 16.8554 7.3975C17.0092 9.26784 16.4318 11.125 15.2446 12.5783L11.2504 17.4633C11.099 17.6486 10.9084 17.7979 10.6922 17.9005C10.476 18.003 10.2397 18.0562 10.0004 18.0562C9.76116 18.0562 9.52488 18.003 9.30869 17.9005C9.0925 17.7979 8.90182 17.6486 8.75043 17.4633L4.75709 12.5783C3.56956 11.1251 2.99184 9.26795 3.14543 7.3975ZM10.0004 4.375C8.95061 4.375 7.9438 4.79204 7.20146 5.53437C6.45913 6.2767 6.04209 7.28352 6.04209 8.33333C6.04209 9.38315 6.45913 10.39 7.20146 11.1323C7.9438 11.8746 8.95061 12.2917 10.0004 12.2917C11.0502 12.2917 12.0571 11.8746 12.7994 11.1323C13.5417 10.39 13.9588 9.38315 13.9588 8.33333C13.9588 7.28352 13.5417 6.2767 12.7994 5.53437C12.0571 4.79204 11.0502 4.375 10.0004 4.375Z" fill="#3A3644"/>
</g>
</svg>
