<svg width="24" height="25" viewBox="0 0 24 25" fill="none" xmlns="http://www.w3.org/2000/svg">
<path d="M12.7151 20.5V16.2143H15.5724L12.0007 11.9286L8.42903 16.2143H11.2864V20.5H7.71469V20.4643C7.59469 20.4714 7.48039 20.5 7.35753 20.5C5.93662 20.5 4.57391 19.9356 3.56918 18.9309C2.56445 17.9263 2 16.5637 2 15.1429C2 12.3943 4.07872 10.1543 6.74605 9.84714C6.97992 8.62471 7.63248 7.52197 8.59149 6.72858C9.5505 5.9352 10.756 5.50076 12.0007 5.5C13.2456 5.50069 14.4513 5.93506 15.4106 6.72843C16.3698 7.5218 17.0227 8.62458 17.2568 9.84714C19.9241 10.1543 22 12.3943 22 15.1429C22 16.5637 21.4355 17.9263 20.4308 18.9309C19.4261 19.9356 18.0634 20.5 16.6425 20.5C16.5225 20.5 16.4067 20.4714 16.2853 20.4643V20.5H12.7151Z" fill="#3A3644"/>
</svg>
