<?xml version="1.0" standalone="no"?>
<!DOCTYPE svg PUBLIC "-//W3C//DTD SVG 20010904//EN"
 "http://www.w3.org/TR/2001/REC-SVG-20010904/DTD/svg10.dtd">
<svg version="1.0" xmlns="http://www.w3.org/2000/svg"
 width="740.000000pt" height="740.000000pt" viewBox="0 0 740.000000 740.000000"
 preserveAspectRatio="xMidYMid meet">

<g transform="translate(0.000000,740.000000) scale(0.100000,-0.100000)"
fill="#000000" stroke="none">
<path d="M2421 6809 c-24 -5 -47 -11 -50 -15 -3 -4 5 -3 19 2 38 13 2437 17
2534 4 98 -13 159 -41 191 -88 26 -38 35 -71 11 -40 -19 26 -91 55 -166 68
-46 8 -430 10 -1300 8 -1419 -3 -1287 6 -1395 -102 -34 -34 -73 -77 -87 -96
l-26 -35 9 44 c5 24 14 53 20 64 8 14 8 17 0 13 -6 -4 -20 -37 -31 -74 l-21
-67 0 -2818 c1 -2758 2 -2819 21 -2873 26 -76 76 -142 140 -187 110 -77 17
-72 1410 -72 l1245 0 70 22 c88 29 156 79 199 146 72 112 66 -144 66 2942 0
1827 -3 2801 -10 2835 -22 114 -95 223 -186 276 -92 54 -77 54 -1399 53 -671
-1 -1240 -5 -1264 -10z m467 -141 c7 -7 12 -30 12 -53 0 -57 37 -124 80 -147
33 -17 76 -18 716 -18 l681 0 33 23 c51 34 70 67 77 131 4 42 11 60 25 67 13
7 101 9 241 7 221 -3 222 -3 269 -30 61 -36 105 -91 123 -152 22 -73 23 -5578
1 -5649 -19 -63 -64 -117 -128 -153 l-53 -29 -1265 0 -1265 0 -53 29 c-57 32
-102 81 -130 143 -16 36 -17 201 -17 2838 l0 2800 21 46 c31 66 93 125 151
143 63 19 462 23 481 4z m1177 -97 c-3 -6 -14 -11 -23 -11 -13 0 -13 2 4 14
21 15 30 14 19 -3z"/>
<path d="M2315 6770 c-3 -6 1 -7 9 -4 18 7 21 14 7 14 -6 0 -13 -4 -16 -10z"/>
<path d="M2234 6708 l-29 -33 33 29 c30 28 37 36 29 36 -2 0 -16 -15 -33 -32z"/>
<path d="M2094 5900 c0 -58 1 -81 3 -52 2 28 2 76 0 105 -2 28 -3 5 -3 -53z"/>
<path d="M5308 5505 c-2 -52 0 -95 5 -95 4 0 7 43 7 95 0 52 -2 95 -4 95 -3 0
-6 -43 -8 -95z"/>
<path d="M2082 5331 c0 -109 4 -205 9 -212 5 -8 9 76 9 199 0 129 -4 212 -10
212 -6 0 -9 -77 -8 -199z"/>
<path d="M5305 5377 c-3 -7 -4 -145 -3 -306 2 -225 6 -295 16 -299 9 -3 12 63
12 307 0 207 -3 311 -10 311 -6 0 -13 -6 -15 -13z"/>
<path d="M2080 4708 c0 -133 4 -239 10 -248 6 -10 10 69 10 233 0 158 -4 247
-10 247 -6 0 -10 -84 -10 -232z"/>
<path d="M5312 4473 l2 -278 6 265 c3 146 9 271 13 278 5 8 3 12 -7 12 -14 0
-16 -32 -14 -277z"/>
<path d="M5315 2530 c0 -217 1 -306 2 -197 2 108 2 286 0 395 -1 108 -2 19 -2
-198z"/>
<path d="M5296 846 c-11 -59 -52 -132 -103 -187 -55 -59 -92 -83 -169 -109
-56 -19 -88 -20 -1213 -21 -636 -1 -1183 -5 -1216 -9 -33 -4 -48 -8 -34 -9 14
0 34 -10 45 -22 63 -70 100 -71 1389 -67 846 3 1119 7 1148 17 25 8 46 25 62
50 32 47 73 175 73 221 -1 19 7 61 16 93 10 31 16 63 13 70 -2 6 -7 -6 -11
-27z"/>
</g>
</svg>
