<svg width="20" height="20" viewBox="0 0 20 20" fill="none" xmlns="http://www.w3.org/2000/svg">
<path d="M18.7468 11.5841C18.9065 11.7014 19.0256 11.8656 19.0875 12.0539C19.1494 12.2421 19.1509 12.445 19.0919 12.6342C18.6839 13.9363 17.991 15.1313 17.0636 16.1323C16.9295 16.2757 16.7543 16.3742 16.562 16.4141C16.3698 16.4541 16.1698 16.4335 15.9897 16.3553L14.7333 15.8039C14.596 15.7428 14.4464 15.7146 14.2963 15.7216C14.1468 15.7309 14.0016 15.7749 13.8721 15.8501C13.7426 15.925 13.6327 16.0295 13.5515 16.155C13.4703 16.2806 13.42 16.4237 13.4049 16.5725L13.2539 17.9414C13.2321 18.1362 13.1507 18.3196 13.0207 18.4664C12.8907 18.6132 12.7185 18.7162 12.5277 18.7614C11.1935 19.0795 9.80275 19.0795 8.46858 18.7614C8.27892 18.7159 8.10784 18.6132 7.97851 18.4672C7.84918 18.3212 7.76787 18.139 7.74557 17.9452L7.59455 16.5789C7.56861 16.346 7.45762 16.1309 7.28285 15.9748C7.14634 15.8544 6.97852 15.7751 6.79883 15.7461C6.61913 15.7171 6.4349 15.7396 6.26744 15.8109L5.01102 16.363C4.83139 16.4411 4.63202 16.4618 4.44016 16.4224C4.24829 16.3829 4.07329 16.2852 3.93905 16.1425C3.01016 15.1405 2.31638 13.944 1.90822 12.64C1.84941 12.4511 1.85098 12.2485 1.91272 12.0605C1.97447 11.8725 2.09331 11.7084 2.25269 11.5912L3.36129 10.7718C3.48243 10.6829 3.58094 10.5668 3.64884 10.4329C3.71675 10.2989 3.75213 10.1508 3.75213 10.0006C3.75213 9.85035 3.71675 9.70226 3.64884 9.56827C3.58094 9.43429 3.48243 9.31818 3.36129 9.22936L2.25269 8.41125C2.09446 8.29436 1.97636 8.13128 1.91467 7.94447C1.85297 7.75767 1.85072 7.55633 1.90822 7.3682C2.31563 6.06499 3.00928 4.86938 3.93841 3.86887C4.02838 3.77183 4.13764 3.69471 4.25974 3.64329C4.37868 3.59292 4.50654 3.56696 4.6357 3.56696C4.76487 3.56696 4.89272 3.59292 5.01167 3.64329L6.26294 4.1947C6.4006 4.25383 6.55019 4.2799 6.69973 4.27083C6.84928 4.26175 6.99462 4.21779 7.12412 4.14245C7.25362 4.06711 7.36367 3.9625 7.44548 3.83698C7.52728 3.71146 7.57855 3.56854 7.59519 3.41964L7.74686 2.0559C7.76873 1.85892 7.85159 1.67368 7.98387 1.52609C8.11614 1.37849 8.29122 1.2759 8.48464 1.23265C9.14888 1.08627 9.82636 1.00832 10.5065 1C11.1826 1.00771 11.8561 1.08547 12.5161 1.23265C12.7097 1.27612 12.8848 1.37905 13.017 1.52702C13.1492 1.67499 13.2318 1.86059 13.2532 2.05783L13.4049 3.42029C13.421 3.56895 13.4718 3.71175 13.5533 3.83714C13.6348 3.96252 13.7446 4.06698 13.8739 4.14205C14.0033 4.21713 14.1484 4.26073 14.2977 4.26931C14.447 4.2779 14.5962 4.25124 14.7333 4.19149L15.9839 3.64072C16.1642 3.56196 16.3645 3.54106 16.5572 3.58088C16.7499 3.62071 16.9255 3.7193 17.0598 3.86309C17.9889 4.86214 18.6822 6.05682 19.0887 7.3592C19.1471 7.54802 19.1453 7.75036 19.0834 7.9381C19.0216 8.12584 18.9028 8.28964 18.7435 8.40675L17.6382 9.22486C17.5165 9.31288 17.4175 9.42844 17.3491 9.56209C17.2807 9.69573 17.2449 9.84367 17.2447 9.9938C17.2444 10.1439 17.2797 10.292 17.3476 10.4259C17.4156 10.5597 17.5143 10.6756 17.6356 10.7641L18.7468 11.5841ZM10.5 12.5661C11.1818 12.5661 11.8357 12.2953 12.3178 11.8132C12.7999 11.3311 13.0707 10.6772 13.0707 9.99542C13.0707 9.31364 12.7999 8.65978 12.3178 8.17768C11.8357 7.69559 11.1818 7.42475 10.5 7.42475C9.81826 7.42475 9.1644 7.69559 8.68231 8.17768C8.20021 8.65978 7.92938 9.31364 7.92938 9.99542C7.92938 10.6772 8.20021 11.3311 8.68231 11.8132C9.1644 12.2953 9.81826 12.5661 10.5 12.5661Z" fill="#090415"/>
</svg>
