<svg width="20" height="20" viewBox="0 0 20 20" fill="none" xmlns="http://www.w3.org/2000/svg">
<path d="M11.0182 5.66546C11.0507 5.67305 11.0507 5.67305 11.0837 5.6808C11.6596 5.81796 12.2119 6.08086 12.6775 6.44627C12.6949 6.45989 12.7123 6.4735 12.7302 6.48754C13.6583 7.22093 14.256 8.28374 14.3952 9.46086C14.5023 10.6962 14.1753 11.8642 13.3749 12.8168C12.6484 13.6776 11.6249 14.2158 10.5062 14.3459C10.0029 14.3872 9.49307 14.3707 9.00116 14.2544C8.96785 14.2468 8.96785 14.2468 8.93387 14.239C7.81511 13.9749 6.87679 13.2504 6.26223 12.2922C6.05093 11.934 5.88363 11.5718 5.76812 11.1718C5.76036 11.1449 5.75259 11.118 5.74459 11.0903C5.64353 10.7191 5.60564 10.3521 5.60749 9.96804C5.60765 9.92819 5.60781 9.88833 5.60797 9.84727C5.61195 9.53796 5.6404 9.25108 5.71525 8.95136C5.72285 8.91896 5.72285 8.91896 5.7306 8.8859C5.86776 8.31003 6.13066 7.75776 6.49606 7.29214C6.50968 7.27473 6.5233 7.25731 6.53733 7.23937C7.2332 6.35884 8.26616 5.72679 9.38953 5.58196C9.93158 5.52765 10.4884 5.53314 11.0182 5.66546ZM9.6742 7.36534C9.60537 7.47751 9.60916 7.55326 9.6193 7.68255C9.60156 7.68695 9.58382 7.69135 9.56554 7.69589C9.22874 7.79204 8.99338 8.00909 8.80596 8.30069C8.62424 8.64479 8.58602 9.0152 8.66934 9.39565C8.79909 9.7702 9.08045 10.0843 9.4377 10.2586C9.65157 10.3451 9.86354 10.3738 10.0917 10.393C10.2556 10.4254 10.3626 10.4943 10.4611 10.6289C10.5249 10.8239 10.541 11.0385 10.4469 11.2267C10.3381 11.3634 10.2423 11.4369 10.0692 11.4699C9.89831 11.4811 9.77934 11.4407 9.64052 11.3414C9.50456 11.2209 9.48315 11.0714 9.44646 10.9014C9.41713 10.7782 9.39601 10.6899 9.30006 10.6045C9.19045 10.5422 9.12709 10.513 9.00116 10.513C8.85312 10.5607 8.75341 10.6028 8.67582 10.7407C8.58491 11.0134 8.66407 11.2667 8.77342 11.5215C8.92128 11.8074 9.14128 12.0283 9.43833 12.1539C9.57841 12.2175 9.57841 12.2175 9.616 12.3065C9.62489 12.3575 9.63263 12.4086 9.63912 12.4599C9.64862 12.5397 9.64862 12.5397 9.71893 12.6277C9.84638 12.7144 9.95417 12.7348 10.1073 12.7253C10.2427 12.6711 10.3223 12.5873 10.4001 12.465C10.4001 12.4281 10.4001 12.3912 10.4001 12.3532C10.4326 12.2373 10.4326 12.2373 10.5109 12.1896C10.5801 12.1581 10.6493 12.1268 10.7186 12.0956C11.0296 11.9363 11.2125 11.6418 11.3374 11.3245C11.4389 10.987 11.3816 10.6362 11.246 10.3178C11.0548 9.97119 10.7797 9.72177 10.4001 9.60204C10.2739 9.57575 10.1468 9.55578 10.0189 9.53942C9.87315 9.51981 9.77599 9.491 9.65183 9.40683C9.63036 9.40683 9.60889 9.40683 9.58677 9.40683C9.5767 9.38134 9.56664 9.35584 9.55627 9.32957C9.52402 9.24666 9.52402 9.24666 9.48916 9.1791C9.47197 8.97678 9.46558 8.79736 9.58677 8.62603C9.7456 8.4791 9.87555 8.44971 10.0865 8.45217C10.2283 8.47064 10.3276 8.53088 10.4326 8.62603C10.5196 8.74898 10.5417 8.8736 10.5729 9.01846C10.6024 9.14288 10.6237 9.22991 10.7214 9.31533C10.8423 9.38546 10.9099 9.42142 11.0491 9.39463C11.1724 9.35818 11.256 9.31675 11.3273 9.20757C11.4411 8.96374 11.3726 8.71727 11.2911 8.47251C11.1594 8.16081 10.9256 7.87882 10.6093 7.74469C10.5399 7.72111 10.4712 7.70019 10.4001 7.68255C10.4061 7.63323 10.4061 7.63323 10.4123 7.58291C10.3983 7.43572 10.3669 7.37728 10.2672 7.27232C10.0508 7.11515 9.84835 7.1959 9.6742 7.36534Z" fill="#090415"/>
<path d="M13.3939 3.45319C14.6681 4.12656 15.6862 5.14822 16.4195 6.38123C16.4317 6.40157 16.4439 6.42191 16.4564 6.44286C16.8128 7.04617 17.0365 7.72037 17.2003 8.39832C17.3335 8.26903 17.4465 8.13229 17.5593 7.98529C17.6418 7.88859 17.7029 7.82197 17.8304 7.7986C18.0165 7.79832 18.1281 7.81523 18.2739 7.94285C18.373 8.09151 18.3708 8.22454 18.339 8.39832C18.2807 8.51227 18.2054 8.60679 18.1227 8.70418C18.0742 8.76156 18.027 8.81989 17.9798 8.87845C17.9083 8.96717 17.8364 9.05549 17.7641 9.14354C17.6927 9.23077 17.6226 9.31876 17.5536 9.40788C17.5376 9.42861 17.5215 9.44933 17.505 9.47068C17.4749 9.50972 17.4449 9.54886 17.4151 9.58813C17.3128 9.72069 17.23 9.80906 17.0702 9.86234C16.7893 9.88353 16.6255 9.75598 16.4195 9.5858C16.3763 9.5507 16.3332 9.51563 16.29 9.48057C16.2683 9.46285 16.2465 9.44514 16.2241 9.42688C16.1241 9.34587 16.0227 9.26656 15.9213 9.18726C15.884 9.15791 15.8467 9.12855 15.8094 9.09919C15.7416 9.04598 15.6736 8.9933 15.6053 8.94084C15.576 8.91816 15.5468 8.89547 15.5167 8.87209C15.4787 8.84297 15.4787 8.84297 15.4399 8.81325C15.355 8.73449 15.3194 8.66965 15.3036 8.55501C15.3025 8.34972 15.3393 8.24856 15.4801 8.09535C15.6122 8.01781 15.717 8.00761 15.8664 8.04045C16.0012 8.10922 16.1174 8.19381 16.2243 8.30072C16.0074 7.40269 15.5586 6.55902 14.9555 5.86069C14.9337 5.83532 14.9119 5.80994 14.8894 5.7838C14.8152 5.69956 14.7394 5.61723 14.6627 5.53535C14.6402 5.51126 14.6402 5.51126 14.6174 5.48668C13.6304 4.43516 12.3114 3.8539 10.9111 3.59946C10.8275 3.58403 10.7441 3.56826 10.6608 3.55117C10.6383 3.54663 10.6158 3.54209 10.5926 3.53741C10.4547 3.49462 10.3661 3.40314 10.2889 3.28239C10.2535 3.10942 10.2694 2.95672 10.3601 2.80455C10.9645 2.25049 12.7987 3.14769 13.3939 3.45319Z" fill="#090415"/>
<path d="M17.0703 10.3178C17.1996 10.3923 17.2831 10.4683 17.3306 10.6106C17.3615 12.2767 16.4222 13.9842 15.2976 15.1558C15.0064 15.4549 14.7117 15.7382 14.37 15.9787C14.3476 15.9945 14.3252 16.0103 14.3021 16.0265C13.5143 16.5754 12.6885 16.943 11.7673 17.215C11.7963 17.2366 11.8254 17.2582 11.8553 17.2804C11.8937 17.3094 11.9322 17.3385 11.9707 17.3675C11.9993 17.3887 11.9993 17.3887 12.0285 17.4104C12.1623 17.5118 12.2765 17.6151 12.3529 17.7681C12.3657 17.9212 12.3683 17.9981 12.298 18.1361C12.1816 18.2714 12.1117 18.3162 11.932 18.3333C11.7186 18.336 11.5611 18.1952 11.4095 18.0609C11.2592 17.9307 11.1068 17.8047 10.9499 17.6827C10.8076 17.5716 10.6656 17.4603 10.5249 17.3472C10.497 17.3247 10.469 17.3023 10.4402 17.2792C10.346 17.1949 10.2789 17.1341 10.2578 17.0067C10.2605 16.7214 10.2605 16.7214 10.3684 16.5968C10.3898 16.5968 10.4113 16.5968 10.4334 16.5968C10.4424 16.5777 10.4514 16.5585 10.4606 16.5387C10.4968 16.4699 10.5353 16.4159 10.5848 16.3561C10.6019 16.3354 10.6189 16.3147 10.6365 16.2933C10.6547 16.2713 10.6729 16.2494 10.6917 16.2268C10.7299 16.1802 10.7681 16.1337 10.8063 16.0871C10.8255 16.0636 10.8448 16.0402 10.8646 16.016C10.9795 15.8749 11.0912 15.7313 11.2032 15.5879C11.2283 15.5558 11.2534 15.5238 11.2793 15.4907C11.3142 15.4454 11.3142 15.4454 11.3497 15.3992C11.4469 15.2834 11.5348 15.2671 11.6819 15.2508C11.8248 15.2655 11.9172 15.3017 12.0276 15.3931C12.1112 15.5054 12.1331 15.5935 12.1272 15.7306C12.1015 15.9038 12.0082 16.0116 11.8975 16.1414C11.876 16.1736 11.8545 16.2058 11.8324 16.239C13.4281 15.6993 14.7597 14.7178 15.6063 13.2459C15.6178 13.2262 15.6293 13.2065 15.6411 13.1863C16.056 12.4686 16.3128 11.6681 16.4172 10.847C16.4432 10.6551 16.4866 10.5066 16.6332 10.3707C16.7832 10.2998 16.9073 10.2831 17.0703 10.3178Z" fill="#090415"/>
<path d="M8.47347 1.79322C8.55709 1.86347 8.63903 1.93507 8.72055 2.00771C8.81211 2.08722 8.90809 2.16097 9.00392 2.23522C9.04219 2.26515 9.08044 2.2951 9.11868 2.32507C9.14647 2.34686 9.14647 2.34686 9.17483 2.36909C9.25987 2.43589 9.34457 2.50303 9.42889 2.57073C9.47028 2.60382 9.47028 2.60382 9.51251 2.63758C9.65709 2.76745 9.74143 2.87443 9.76033 3.07093C9.73955 3.32029 9.56064 3.50099 9.40449 3.68501C9.26193 3.8553 9.12173 4.02646 8.98765 4.20352C8.63614 4.66412 8.63614 4.66412 8.48135 4.72202C8.3177 4.73255 8.1694 4.716 8.04011 4.61019C7.91088 4.47433 7.91766 4.37587 7.91861 4.19386C7.93248 4.06466 7.97667 4.00775 8.05841 3.90868C8.06914 3.87647 8.07988 3.84426 8.09094 3.81108C7.20476 4.1197 6.42676 4.52668 5.71598 5.14496C5.69712 5.16123 5.67826 5.17749 5.65882 5.19425C4.45404 6.24128 3.75041 7.73916 3.53826 9.30521C3.51135 9.47232 3.46827 9.5547 3.34102 9.66715C3.21659 9.74664 3.09979 9.7393 2.95786 9.71963C2.83714 9.68632 2.77634 9.62731 2.69035 9.53701C2.41752 8.71853 3.02687 7.40735 3.38212 6.68848C3.73917 5.99519 4.20137 5.38111 4.73997 4.81962C4.76543 4.79282 4.79088 4.76603 4.81711 4.73842C5.26649 4.27622 5.80683 3.8994 6.36666 3.58334C6.38786 3.57118 6.40905 3.55903 6.4309 3.5465C7.00533 3.21923 7.6197 3.01482 8.25361 2.83507C8.12058 2.69964 7.9809 2.57476 7.83741 2.45063C7.72912 2.3435 7.691 2.25885 7.68834 2.10712C7.6915 1.95932 7.73353 1.87525 7.83067 1.76145C8.04615 1.6178 8.26629 1.64474 8.47347 1.79322Z" fill="#090415"/>
<path d="M3.27552 10.2853C3.38391 10.3484 3.4739 10.4309 3.56832 10.513C3.62908 10.563 3.69022 10.6126 3.7514 10.6621C3.79629 10.6984 3.8411 10.7349 3.88583 10.7714C3.99552 10.861 4.10575 10.9496 4.21798 11.0359C4.23837 11.0517 4.25877 11.0674 4.27978 11.0836C4.31788 11.1129 4.35612 11.142 4.39452 11.1709C4.5347 11.2787 4.68377 11.3944 4.72746 11.5724C4.72252 11.7539 4.70556 11.8707 4.57687 12.0095C4.44083 12.1076 4.32849 12.1238 4.16664 12.1004C4.01975 12.0517 3.90932 11.9494 3.79606 11.8469C3.8408 12.0833 3.91599 12.2945 4.00956 12.5158C4.02408 12.5503 4.03859 12.5847 4.05355 12.6201C4.72128 14.1745 6.00936 15.4022 7.56997 16.0437C8.09023 16.2488 8.63282 16.3735 9.18496 16.4578C9.52906 16.512 9.52906 16.512 9.65009 16.6314C9.74497 16.7726 9.74901 16.9211 9.71719 17.0848C9.65014 17.2189 9.5955 17.2903 9.45692 17.3451C8.17949 17.5195 6.58053 16.692 5.59837 15.9565C5.34223 15.7614 5.10196 15.5509 4.86967 15.328C4.85138 15.3106 4.83309 15.2932 4.81424 15.2752C3.80992 14.315 3.19158 13.1105 2.82005 11.7818C2.71783 11.8809 2.62728 11.98 2.54351 12.0949C2.39057 12.2918 2.39057 12.2918 2.26697 12.3349C2.11737 12.352 1.98756 12.3525 1.84607 12.2983C1.71917 12.1829 1.67563 12.064 1.66713 11.8957C1.661 11.6701 1.8576 11.4924 1.99247 11.3263C2.02727 11.2832 2.06205 11.2401 2.09681 11.197C2.11432 11.1752 2.13183 11.1535 2.14988 11.1311C2.2153 11.0493 2.27964 10.9667 2.3439 10.884C2.89784 10.1723 2.89784 10.1723 3.27552 10.2853Z" fill="#090415"/>
</svg>
