<svg width="20" height="20" viewBox="0 0 20 20" fill="none" xmlns="http://www.w3.org/2000/svg">
<path d="M5.32706 9.17245C5.39406 9.20831 5.45992 9.24634 5.52488 9.28577C5.82478 9.46189 6.13176 9.59222 6.46595 9.68716C6.49799 9.69632 6.49799 9.69632 6.53068 9.70567C7.65401 10.008 8.76358 9.77015 9.75203 9.20318C9.78245 9.1829 9.81287 9.16262 9.84422 9.14172C9.98653 9.14966 10.0981 9.22268 10.2168 9.29537C10.2371 9.30771 10.2574 9.32005 10.2783 9.33276C10.4647 9.44841 10.6323 9.58067 10.7968 9.72557C10.823 9.74803 10.8492 9.77049 10.8762 9.79363C11.2164 10.091 11.4706 10.4267 11.7187 10.8011C11.739 10.8315 11.7592 10.8619 11.7801 10.8933C11.7712 11.0033 11.724 11.0486 11.6438 11.1199C10.9661 11.7758 10.5291 12.8446 10.5129 13.7801C10.495 15.0915 10.8817 16.1704 11.7815 17.1372C11.8635 17.2209 11.9482 17.2977 12.0394 17.3713C12.0654 17.3935 12.0914 17.4157 12.1182 17.4385C12.1182 17.4588 12.1182 17.4791 12.1182 17.5C8.94416 17.5 5.77017 17.5 2.5 17.5C2.5 11.9713 2.5 11.9713 3.63697 10.4938C3.669 10.4514 3.669 10.4514 3.70167 10.4082C4.03377 9.98514 4.42397 9.63025 4.86613 9.3261C4.8971 9.30471 4.92808 9.28332 4.96 9.26128C5.17482 9.12231 5.17482 9.12231 5.32706 9.17245Z" fill="#090415"/>
<path d="M7.54678 2.5523C7.58563 2.55256 7.62447 2.55281 7.6645 2.55308C8.17005 2.56215 8.59524 2.67646 9.04482 2.90377C9.07734 2.9202 9.10986 2.93664 9.14336 2.95358C9.84984 3.33969 10.365 4.01198 10.6197 4.76959C10.8656 5.63035 10.7944 6.51732 10.3693 7.30857C9.96276 8.03227 9.28667 8.59307 8.48716 8.82267C8.23653 8.89021 7.98359 8.94719 7.72347 8.95736C7.69828 8.95859 7.67309 8.95982 7.64713 8.96109C6.75174 8.9836 5.95536 8.64542 5.30441 8.04168C4.70892 7.47347 4.3792 6.67963 4.35949 5.86308C4.35286 4.93248 4.6409 4.13453 5.29589 3.45689C5.89224 2.8648 6.70987 2.54514 7.54678 2.5523Z" fill="#090415"/>
<path d="M17.0343 11.4157C17.0589 11.4356 17.0835 11.4555 17.1089 11.476C17.7183 11.9918 18.1554 12.8003 18.2327 13.5975C18.297 14.6171 18.0852 15.5503 17.4031 16.3323C16.7827 17.0312 15.9279 17.4377 14.9942 17.4962C14.0193 17.5373 13.1272 17.1888 12.4117 16.5324C11.7631 15.9082 11.393 15.0314 11.3693 14.1358C11.3614 13.108 11.7591 12.2561 12.4675 11.5245C12.9573 11.0496 13.599 10.7561 14.2687 10.6475C14.2913 10.6435 14.3139 10.6395 14.3372 10.6354C15.3145 10.4936 16.2779 10.7979 17.0343 11.4157ZM14.3609 12.061C14.3609 12.568 14.3609 13.0751 14.3609 13.5975C13.8539 13.5975 13.3468 13.5975 12.8244 13.5975C12.8244 13.9017 12.8244 14.2059 12.8244 14.5193C13.3315 14.5193 13.8385 14.5193 14.3609 14.5193C14.3609 15.0162 14.3609 15.5131 14.3609 16.025C14.6651 16.025 14.9693 16.025 15.2828 16.025C15.2828 15.5282 15.2828 15.0313 15.2828 14.5193C15.7796 14.5193 16.2765 14.5193 16.7885 14.5193C16.7885 14.2151 16.7885 13.9109 16.7885 13.5975C16.2916 13.5975 15.7947 13.5975 15.2828 13.5975C15.2828 13.0904 15.2828 12.5834 15.2828 12.061C14.9785 12.061 14.6743 12.061 14.3609 12.061Z" fill="#090415"/>
<path d="M13.3718 3.37813C13.9233 3.95011 14.1892 4.69319 14.1879 5.48079C14.1713 6.26835 13.8295 6.98313 13.271 7.53026C12.7275 8.04205 12.0059 8.29693 11.2669 8.28516C11.2332 8.28488 11.1996 8.28461 11.1649 8.28432C11.083 8.28361 11.0012 8.2826 10.9193 8.28132C10.907 8.10921 10.9316 8.02337 11.0287 7.88184C11.5869 7.02536 11.7692 5.93584 11.5637 4.93583C11.3921 4.18042 11.0524 3.52831 10.5339 2.95392C10.456 2.86678 10.3804 2.77766 10.3047 2.68865C11.3679 2.25551 12.5691 2.60272 13.3718 3.37813Z" fill="#090415"/>
<path d="M13.8394 8.18915C14.6296 8.56534 15.3536 9.06394 15.8675 9.78705C15.8573 9.80733 15.8472 9.82761 15.8368 9.84851C15.8104 9.84186 15.7841 9.8352 15.757 9.82834C15.1431 9.69573 14.4177 9.68665 13.8086 9.84851C13.7886 9.85378 13.7685 9.85906 13.7479 9.86449C13.3486 9.97212 12.9517 10.1273 12.601 10.3479C12.5488 10.3709 12.5488 10.3709 12.4566 10.3402C12.4024 10.2673 12.4024 10.2673 12.3433 10.1731C12.1659 9.89995 11.9643 9.65699 11.74 9.42167C11.6663 9.34337 11.6066 9.27237 11.5654 9.17247C11.6019 9.1676 11.6383 9.16273 11.6759 9.15771C12.5068 9.04071 13.1971 8.73058 13.8394 8.18915Z" fill="#090415"/>
</svg>
