<svg width="20" height="20" viewBox="0 0 20 20" fill="none" xmlns="http://www.w3.org/2000/svg">
<g opacity="0.8">
<path d="M10.2093 2.5C14.0071 2.5 17.0856 5.57853 17.0856 9.37632C17.0856 13.1741 14.0071 16.2526 10.2093 16.2526C6.41154 16.2526 3.33301 13.1741 3.33301 9.37632C3.33301 5.57853 6.41154 2.5 10.2093 2.5ZM10.2093 5.25053C10.027 5.25053 9.85205 5.32297 9.7231 5.45193C9.59414 5.58089 9.52169 5.75579 9.52169 5.93816V9.37632C9.52173 9.55867 9.59421 9.73355 9.72317 9.86247L11.7861 11.9254C11.9158 12.0506 12.0895 12.1199 12.2697 12.1184C12.45 12.1168 12.6225 12.0445 12.75 11.917C12.8775 11.7895 12.9498 11.617 12.9514 11.4367C12.9529 11.2564 12.8836 11.0827 12.7584 10.9531L10.897 9.09164V5.93816C10.897 5.75579 10.8245 5.58089 10.6956 5.45193C10.5666 5.32297 10.3917 5.25053 10.2093 5.25053Z" fill="#3A3644"/>
</g>
</svg>
